<?xml version="1.0" standalone="no"?>
<!DOCTYPE svg PUBLIC "-//W3C//DTD SVG 1.1//EN" "http://www.w3.org/Graphics/SVG/1.1/DTD/svg11.dtd" >
<svg>
<metadata>
Created by FontForge 20090914 at Thu Feb 23 17:59:44 2012
 By ffonts
Copyright by Christine Mauerkirchner und Rainer Grunert RWE
</metadata>
<defs>
<font id="BankoliBold" horiz-adv-x="1174" >
  <font-face 
    font-family="Bankoli"
    font-weight="700"
    font-stretch="normal"
    units-per-em="2048"
    panose-1="0 0 7 0 0 0 0 0 0 0"
    ascent="1433"
    descent="-615"
    x-height="776"
    cap-height="1438"
    bbox="-375 -572 2759 1837"
    underline-thickness="82"
    underline-position="-266"
    unicode-range="U+0020-U+F002"
  />
<missing-glyph horiz-adv-x="1024" 
d="M128 0v1433h768v-1433h-768zM256 128h512v1177h-512v-1177z" />
    <glyph glyph-name=".notdef" horiz-adv-x="1024" 
d="M128 0v1433h768v-1433h-768zM256 128h512v1177h-512v-1177z" />
    <glyph glyph-name=".null" horiz-adv-x="0" 
 />
    <glyph glyph-name="nonmarkingreturn" horiz-adv-x="707" 
 />
    <glyph glyph-name="space" unicode=" " horiz-adv-x="707" 
 />
    <glyph glyph-name="exclam" unicode="!" horiz-adv-x="818" 
d="M447 491l9 -40q0 -30 -17 -55q-19 -30 -48 -30q-36 0 -79 38.5t-43 74.5q0 41 177 443l201 446q27 61 69 61q28 0 87 -13q64 -15 80 -28l3 -19q0 -29 -215 -448zM260 -17q-36 0 -73.5 29.5t-37.5 65.5q0 62 31 146q39 101 89 101q52 0 88 -42.5t36 -95.5q0 -70 -31 -130
q-38 -74 -102 -74z" />
    <glyph glyph-name="dollar" unicode="$" 
d="M981 931q-23 7 -24 21q26 39 152 131l-12 5l-255 -31l-88 -324q359 -76 359 -246q0 -237 -515 -390l-48 -275q-79 16 -96 23q-57 22 -57 69q0 16 31 138l-176 -6q-102 -4 -183 12q-129 24 -129 92q0 184 293 184q53 0 139.5 -7t109.5 -7l81 322l-212 32q-135 37 -135 131
q0 215 178 332q91 60 369 148q135 398 274 398q26 0 43 -22t17 -48q0 -28 -69 -140q-77 -125 -87 -156q174 13 222 13q174 0 211 -35l3 -32q0 -124 -141 -215q-62 -40 -255 -117zM393 857q0 -53 199 -86l80 255q-279 -104 -279 -169zM721 602l-69 -258q282 77 282 151
q0 63 -213 107z" />
    <glyph glyph-name="percent" unicode="%" horiz-adv-x="1338" 
d="M375 728q-91 0 -144 75q-48 66 -48 160q0 140 136 306q142 173 279 173q27 0 51 -19t25 -46l-22 -37q107 2 107 -121q0 -147 -117 -312q-126 -179 -267 -179zM316 -65q-37 0 -70.5 38t-33.5 75q0 160 481 698q452 506 649 625l6 -46q0 -69 -53 -145q-24 -35 -104 -120
q-660 -706 -812 -1050l-18 -49q-13 -26 -45 -26zM951 -8q-80 0 -136 77q-51 71 -51 154q0 143 140 305q145 167 286 167q24 0 44.5 -18.5t20.5 -42.5t-26 -37q115 1 115 -118q0 -152 -119 -314q-128 -173 -274 -173zM626 1276q-19 0 -43 -21t-37 -23l-43 26
q-66 -47 -119 -129q-59 -90 -59 -162q0 -31 27 -68q83 0 200 133q114 131 114 216q0 28 -40 28zM1207 533q-10 0 -41 -21t-40 -21t-38 22q-70 -50 -121 -127q-58 -88 -58 -164q0 -27 19 -64q89 0 206 129q114 126 114 217q0 29 -41 29z" />
    <glyph glyph-name="ampersand" unicode="&#x26;" horiz-adv-x="1211" 
d="M732 787q13 -132 104 -269l334 264q33 -91 33 -152q0 -83 -84 -170l-148 -130l19 -36l54 -26l57 13l20 -11l9 -23q0 -55 -70 -147q-73 -96 -126 -96q-40 0 -97 59q-10 10 -77 92q-258 -184 -411 -184q-140 0 -242 71q-115 80 -115 214q0 207 138 355q102 109 322 219
l-9 69q0 204 193 368q184 156 392 156q82 0 141 -59t59 -141q0 -129 -191 -262q-25 -17 -305 -174zM1044 1318q-19 7 -29 7q-231 0 -314 -366q348 200 348 329q0 6 -5 30zM493 649q-94 -47 -186 -146q-105 -113 -112 -201q43 -29 94 -29q166 0 326 104z" />
    <glyph glyph-name="quotesingle" unicode="'" horiz-adv-x="626" 
d="M391 1011l-17 3q54 73 92 139q-87 24 -87 71q0 73 66.5 136t139.5 63q85 0 85 -54q0 -85 -96 -218q-102 -140 -183 -140z" />
    <glyph glyph-name="parenleft" unicode="(" horiz-adv-x="678" 
d="M333 73q0 -78 18 -184l22 13q29 -19 29 -69q0 -57 -27 -103q-33 -55 -86 -55q-183 0 -183 439q0 158 94 480q103 351 235 589q159 288 304 288q32 0 55.5 -26.5t23.5 -58.5q0 -17 -126 -255q-152 -288 -233 -500q-126 -326 -126 -558z" />
    <glyph glyph-name="parenright" unicode=")" horiz-adv-x="678" 
d="M110 -320q-26 0 -49 19t-23 45q0 4 126 237q149 276 234 505q126 337 126 594q0 74 -13 165l-18 -5q-15 0 -27 28q-10 24 -10 41q0 50 29 98q33 56 79 56q187 0 187 -402q0 -162 -100 -493q-107 -354 -243 -598q-161 -290 -298 -290z" />
    <glyph glyph-name="asterisk" unicode="*" horiz-adv-x="1142" 
d="M768 964l142 -103q101 -80 101 -122q0 1 -45 -114l-258 224l-21 -355l-89.5 33t-44.5 79q0 80 29 248q-263 -192 -285 -192q-23 0 -39 28q-15 24 -15 49q0 71 117 147q31 21 180 97l-136 98q-92 68 -92 122q0 81 58 81q38 0 123 -80l113 -113q0 30 -2 81q-3 57 -3 81
q0 57 31 109q35 61 88 61q44 0 44 -78q0 -35 -16 -123q-18 -102 -21 -129q183 114 266 114l36 -9q20 -31 68 -84z" />
    <glyph glyph-name="comma" unicode="," horiz-adv-x="626" 
d="M110 -122q36 44 91 142q-82 17 -82 74q0 74 72 136q70 59 146 59q73 0 73 -54q0 -99 -100 -223q-103 -127 -200 -134z" />
    <glyph glyph-name="hyphen" unicode="-" horiz-adv-x="666" 
d="M4 487v175h618v-175h-618z" />
    <glyph glyph-name="period" unicode="." horiz-adv-x="626" 
d="M243 -4q-124 0 -124 81q0 72 56 144q59 77 129 77q114 0 114 -63q0 -81 -46 -155q-53 -84 -129 -84z" />
    <glyph glyph-name="slash" unicode="/" horiz-adv-x="963" 
d="M200 -191q-52 0 -89.5 47t-37.5 100q0 212 415 854q387 599 594 781q15 -56 15 -103q0 -48 -339 -634q-378 -653 -412 -725l-67 -177q-56 -143 -79 -143z" />
    <glyph glyph-name="zero" unicode="0" 
d="M318 -29q-140 0 -231 108q-85 103 -85 246q0 191 151 437q147 240 358 405q227 177 421 177q56 0 120 -38q72 -43 72 -95q0 -32 -72 -35q119 -56 119 -221q0 -203 -124.5 -435.5t-313.5 -383.5q-207 -165 -415 -165zM941 1082q-30 0 -69 -31q-52 -42 -64 -47l-14 39
q-209 -105 -376 -305q-189 -227 -189 -434q0 -99 57 -167q200 45 464 331q272 294 272 491q0 42 -19 78q-24 45 -62 45z" />
    <glyph glyph-name="one" unicode="1" 
d="M404 -65q-61 3 -136 58q-80 59 -80 118q0 193 205 522q49 80 335 481l-268 -103l-19 4l-7 18q0 69 198 190q189 115 264 115q40 0 67 -59q22 -48 22 -93q0 -88 -191 -391q-244 -388 -254 -408q-45 -89 -70 -203l-44 -205z" />
    <glyph glyph-name="two" unicode="2" 
d="M152 216l17 -4l803 145q-25 -70 -86 -203q-103 -179 -692 -179q-91 0 -149 72q-54 67 -54 161q0 138 272 318l504 294q272 162 272 254q0 68 -97 68q-160 0 -554 -197v-14l109 -6q74 -9 91 -43l-7 -23q-23 -12 -156 -39t-162 -27q-18 0 -56 78l-2 3l-2 -4l2 -18
q13 70 60 205q80 157 311 229q173 54 399 54q127 0 175 -98q33 -68 33 -210q0 -149 -211 -315q-132 -103 -441 -272q-301 -164 -379 -229z" />
    <glyph glyph-name="three" unicode="3" 
d="M1192 1032q0 -152 -174 -292q72 -70 72 -193q0 -303 -316 -479q-263 -147 -592 -147q-103 0 -142 20q-59 30 -59 124q0 105 106 185q99 75 211 75l29 -17q-8 -25 -77 -80l-95 -73q204 19 461 118q329 126 329 270q0 87 -169 87q-44 0 -129.5 -12t-128.5 -12q-99 0 -99 83
q0 68 162 106q268 62 301 76q163 66 163 203q0 68 -98 68q-201 0 -554 -176v-15q55 -3 110 -5q75 -10 90 -44l-6 -22q-23 -12 -156.5 -39t-162.5 -27q-47 0 -47 76q0 244 275 362q204 88 484 88q127 0 177 -97q35 -70 35 -211z" />
    <glyph glyph-name="four" unicode="4" 
d="M841 576q155 14 164 14q75 0 75 -45q0 -54 -92 -183l-292 -38q-39 -114 -39 -157q0 -55 44 -101q-225 -114 -246 -114q-45 0 -45 92q0 77 47 264q-222 -15 -226 -15q-124 0 -183 40q-73 49 -73 171q0 135 238 342q209 184 491.5 334t417.5 150q72 0 72 -46q0 -34 -48 -66
q53 -20 53 -84q0 -58 -154 -275zM208 561q67 -16 137 -16q126 0 234 19l509 617q-197 -59 -487 -254q-315 -211 -393 -366z" />
    <glyph glyph-name="five" unicode="5" 
d="M579 1078q-100 -78 -186 -227q179 48 290 48q149 0 241 -69q104 -76 104 -220q0 -305 -318 -481q-263 -146 -594 -146q-101 0 -140 21q-57 31 -57 123q0 105 106 185q99 75 211 75l29 -17q-9 -25 -77 -80l-95 -73q204 19 461 118q329 127 329 271q0 89 -225 89
q-62 0 -176 -34.5t-174 -34.5q-51 0 -87 83q-29 68 -29 128q0 129 202.5 318.5t338.5 188.5l521 -4l-152 -226q-40 -51 -126 -51q-25 0 -146 6q-131 7 -251 9z" />
    <glyph glyph-name="six" unicode="6" 
d="M467 808l16 -7q145 85 260 85q114 0 181 -85q62 -78 62 -196q0 -174 -200 -398q-204 -228 -376 -228q-139 0 -255 142q-111 135 -111 276q0 240 269 539q241 270 490 379q57 26 220 26q86 0 107 -24q-84 -82 -318 -248q-255 -182 -345 -261zM718 743q-62 0 -232.5 -126
t-193.5 -185q-19 -49 -19 -128q0 -125 47 -125q145 0 304.5 166.5t159.5 311.5q0 86 -66 86z" />
    <glyph glyph-name="seven" unicode="7" 
d="M404 122l56 7l14 -8q-30 -57 -136 -117t-172 -60q-89 0 -89 121q0 133 147 345q110 158 312 373l283 291h-189q-150 0 -263 -33q-44 -13 -243 -94q-37 9 -51 51q97 180 224 259q108 68 277 83q61 5 352 5q92 0 127 -48q17 -23 48 -134q1 -4 1 -9q0 -40 -94 -127
l-124 -106q-369 -330 -480 -799z" />
    <glyph glyph-name="eight" unicode="8" 
d="M1030 1074l-21 5q-1 -84 -167 -235l-244 -205q103 -129 103 -289q0 -179 -151 -283q-133 -92 -319 -92q-94 0 -161 36q-85 45 -85 130q0 103 150 259q65 69 235 213q-168 181 -168 338q0 216 277 323q202 79 462 79q247 0 247 -61q0 -50 -53 -128q-56 -82 -105 -90z
M747 1097q-106 0 -209 -36q-138 -47 -138 -130q0 -70 118 -200l414 354q-127 12 -185 12zM449 501q-293 -255 -293 -338q0 -44 71 -44q109 0 194 49q101 60 101 161q0 106 -73 172z" />
    <glyph glyph-name="nine" unicode="9" 
d="M851 956l-15 17q11 38 111 112l-15 8q-663 -168 -671 -481q10 -19 37 -19q113 0 282 92q89 48 266 170q133 92 160 92q29 0 60 -12q40 -16 40 -41q0 -37 -194 -275q-201 -247 -391 -438q-228 -228 -302 -229l-35 36q2 51 44 114q44 68 91 77l20 -10l418 498
q-362 -215 -446 -215q-85 0 -216 271q-27 56 -33 56q-5 -7 -3 -22l4 -18l51 147q32 86 75 133q96 104 315 214q228 115 359 115q67 0 151 -75q80 -71 100 -139q-15 -47 -114 -107q-78 -47 -149 -71z" />
    <glyph glyph-name="colon" unicode=":" horiz-adv-x="626" 
d="M472 484q2 0 7 -1h8l-87 20q-50 18 -50 65q0 74 59.5 147.5t131.5 73.5q112 0 112 -61q0 -127 -86 -203q-13 -11 -95 -41zM227 -8q-43 0 -79 21q-42 24 -42 64q0 72 57 142q60 74 131 74q112 0 112 -62q0 -81 -48 -156q-55 -83 -131 -83z" />
    <glyph glyph-name="semicolon" unicode=";" horiz-adv-x="626" 
d="M472 484q2 0 7 -1h8l-87 20q-50 18 -50 65q0 74 59.5 147.5t131.5 73.5q112 0 112 -61q0 -127 -86 -203q-13 -11 -95 -41zM110 -122q36 44 91 142q-82 17 -82 74q0 74 72 136q70 59 146 59q73 0 73 -54q0 -99 -100 -223q-103 -127 -200 -134z" />
    <glyph glyph-name="question" unicode="?" horiz-adv-x="972" 
d="M568 366q0 -37 -36 -37q-46 0 -82 48t-36 96q0 103 135 240l250 224q135 123 135 193q0 89 -175 89q-105 0 -305 -82q91 -15 91 -59q0 -30 -45 -33l-112 10q-99 12 -99 67q0 164 172 242q128 59 315 59q140 0 194 -46q58 -50 58 -187q0 -134 -122 -311q-59 -85 -226 -273
q-122 -137 -122 -176q0 -11 5 -32t5 -32zM362 -17q-50 0 -79 38q-27 34 -27 85q0 62 32 133q38 86 91 86q49 0 82 -48q30 -43 30 -94q0 -71 -29 -128q-36 -72 -100 -72z" />
    <glyph glyph-name="A" unicode="A" horiz-adv-x="1621" 
d="M1378 728l138 7l54 -13q-96 -133 -145 -231l-169 -8l-135 -264l42 -36q45 10 98 47l86 68l29 -50q-265 -265 -425 -265q-41 0 -69 38q-25 34 -25 77q0 73 57 188l96 178l-458 -17l-287 -299q-265 -262 -342 -262q-69 0 -69 37q0 84 138 203q124 107 219 135l169 186
q-17 0 -51.5 -4t-52.5 -4q-92 0 -109 40q25 107 159 196q127 84 242 84l50 -11l-16 -16q-132 2 -138 -37l40 -25q42 3 128 8q864 741 998 741q72 0 72 -89q0 -58 -139 -296zM820 698l341 22l310 514z" />
    <glyph glyph-name="B" unicode="B" horiz-adv-x="1479" 
d="M762 720l-51 -53q654 -60 654 -274q0 -172 -333 -306q-279 -112 -487 -112q-130 0 -222 46q-119 58 -119 175q0 87 88 216l147 194q-58 0 -112 13q-79 20 -79 60q0 104 351 110q174 175 211 204q136 110 262 112q-21 -58 -204 -274q193 28 341 77q245 82 245 189
q0 61 -92 92q-66 22 -143 22q-222 0 -654 -152l24 -48l-419 -129l-43 44q6 274 436 412q305 98 656 98q146 0 260 -50q150 -65 150 -192q0 -217 -340 -348q-179 -69 -527 -126zM629 572l-115 -120q-79 -90 -79 -131q0 -56 98 -89q73 -24 145 -24q107 0 273 63
q196 75 196 159q0 109 -493 141z" />
    <glyph glyph-name="C" unicode="C" horiz-adv-x="1488" 
d="M726 402q-40 0 -68 22q-32 24 -32 63q0 72 148 221q141 142 214 166l15 -54q97 71 208 200q135 158 135 239q0 15 -17 28t-33 13q-171 0 -421 -215q-230 -198 -405 -467q-181 -277 -181 -447q0 -108 60 -172t167 -64q186 0 481 189q139 88 432 319q-4 -139 -219 -317
q-189 -156 -452 -276q-258 -118 -400 -118q-163 0 -266.5 103.5t-103.5 266.5q0 242 238 572q225 311 538 535q329 237 570 237q185 0 185 -235q0 -120 -150 -320q-142 -190 -326 -335q-197 -154 -317 -154z" />
    <glyph glyph-name="D" unicode="D" horiz-adv-x="1675" 
d="M418 -21q-231 0 -231 94q0 221 284 582l416 483q-265 0 -479 -111l100 5q48 3 89 -21q-28 -23 -198 -68q-165 -44 -212 -44q-73 0 -73 64q0 273 357 399q249 88 590 88q306 0 485 -115q214 -139 214 -428q0 -280 -236 -507q-203 -196 -534 -314q-301 -107 -572 -107z
M995 1151q-3 -89 -155 -284l-280 -337q-150 -184 -150 -249q0 -73 154 -73q318 0 653 167q398 198 398 482q0 180 -237 247q-91 25 -383 47z" />
    <glyph glyph-name="E" unicode="E" horiz-adv-x="1459" 
d="M1146 984l-16 13q16 60 163 162l-69 2q-164 5 -415 -69q-305 -90 -305 -214q0 -83 422 -83q76 0 174 3t103 3q97 0 97 -58q0 -42 -40.5 -90.5t-82.5 -59.5l-316 -74q-257 -66 -402 -139q-199 -100 -199 -217q0 -36 108 -56q75 -13 140 -13q442 0 846 296q11 -55 11 -86
q0 -241 -340 -372q-257 -98 -546 -98q-433 0 -433 251q0 222 328 398q221 119 527 191q-624 0 -624 256q0 261 412 399q298 100 624 100q151 0 183 -16q56 -31 56 -165q0 -77 -162 -165q-123 -66 -244 -99z" />
    <glyph glyph-name="F" unicode="F" horiz-adv-x="1446" 
d="M1277 615l144 -25q-94 -147 -115 -166q-62 -58 -191 -58q-184 -212 -379 -399q-304 -290 -416 -292l-31 24q1 103 122 226q117 120 221 136l252 264q-55 0 -168.5 -11.5t-170.5 -11.5q-89 0 -89 47q0 125 277 204q68 20 391 78q224 382 224 461q0 44 -29 56q-16 7 -67 7
q-176 0 -440 -73q-234 -64 -425 -152l181 -11q-79 -50 -203 -84l-216 -51l-43 44q19 324 509 485q349 114 763 114q226 0 226 -130q0 -105 -128 -349q-93 -176 -199 -333z" />
    <glyph glyph-name="G" unicode="G" horiz-adv-x="1450" 
d="M1109 963l-27 17q16 59 184 161q-267 -70 -617 -310q-410 -282 -410 -498q0 -30 26 -60t55 -30q79 0 455 301q421 337 493 374l116 -63l6 -23q0 -94 -420 -715l476 306v-17q0 -61 -84 -136q-32 -28 -137 -100q-3 -2 -197 -121q-120 -74 -182 -140l-255 -273
q-191 -185 -293 -185q-71 0 -71 89q0 142 144 251l246 168q61 54 184 251q113 181 154 278q-58 -34 -202 -147q-148 -115 -226 -162q-129 -77 -223 -77q-99 0 -167 72t-68 171q0 278 236 542q211 236 539 391q319 149 588 149q99 0 99 -168q0 -54 -182 -174
q-176 -117 -240 -122z" />
    <glyph glyph-name="H" unicode="H" horiz-adv-x="1873" 
d="M1620 670q204 0 291 -44q-144 -116 -246 -276q-69 17 -189 16h-24q-73 -114 -75 -119q-31 -57 -31 -113q0 -46 18 -105q-37 -1 -104 -35t-105 -34l-31 10l-19 55q0 94 130 346l-392 -55l-161 -200q-142 -168 -191 -168q-31 0 -56 27t-25 58q0 38 79 136l110 130
q-59 -10 -98 -10q-126 0 -126 86q0 47 34 93q36 50 81 50q19 0 37 -11l353 82l283 292q214 231 214 297q0 58 -72 58q-170 0 -735 -230l44 -30q-15 -16 -209 -110t-210 -94q-60 0 -60 90q0 280 506 446q383 126 749 126q80 0 133.5 -55t53.5 -135q0 -141 -175 -337
l-270 -269l333 36l265 348q219 275 270 278l29 -60q0 -89 -175 -302z" />
    <glyph glyph-name="I" unicode="I" horiz-adv-x="1024" 
d="M657 175l9 -42q0 -59 -56.5 -124t-113.5 -65q-28 0 -61 31t-33 58q0 30 152 261q203 308 282 447q152 267 152 385q0 85 -54 85q-108 0 -312 -169q-196 -162 -242 -272q80 19 120 19l29 -13q-16 -38 -105.5 -104t-126.5 -66q-54 0 -118 47q-69 51 -69 103q0 143 157 312
q141 151 344.5 260.5t343.5 109.5q96 0 152 -63t56 -160q0 -181 -190 -540q-155 -292 -316 -500z" />
    <glyph glyph-name="J" unicode="J" horiz-adv-x="1134" 
d="M799 315l260 118l24 -61l-366 -173l-311 -363q-304 -348 -398 -348q-36 0 -56 38q-17 31 -17 68q0 132 130 257q79 76 270 198q185 116 236 171q127 134 300 496t199 549q-245 -84 -420.5 -293.5t-224.5 -467.5l143 81q10 -4 21 -17q-23 -61 -153 -174
q-135 -117 -192 -117q-65 0 -65 145q0 211 134 451t336 396q219 169 433 169q40 0 95 -37q59 -40 59 -76q0 -191 -162 -519q-60 -122 -275 -491z" />
    <glyph glyph-name="K" unicode="K" horiz-adv-x="1748" 
d="M1718 1122l-490 -251l-191 -85q-134 -69 -134 -135q0 -49 213 -160q325 -171 394 -216q213 -139 213 -254q0 -94 -48 -94q-34 0 -449 230l-480 271l-170 -204q0 -78 -90.5 -159t-169.5 -82l-43 38q18 88 154 257l204 242l-38 94q0 84 170 179l178 90l210 322
q-103 -23 -518 -193q-398 -163 -411 -163q-68 0 -68 63q0 132 109 276q114 151 241 160l8 -8q-26 -69 -112 -117l3 -8q293 120 376 147q219 72 395 72q51 0 95 -65q40 -59 40 -112q0 -47 -67 -140l-99 -131l391 194q344 165 418 173l23 -28q0 -83 -70.5 -144.5t-156.5 -61.5
q-15 0 -30 3z" />
    <glyph glyph-name="L" unicode="L" horiz-adv-x="1454" 
d="M1297 820l43 -24q-5 -39 -130 -132t-170 -96l-37 54q0 100 73 224q40 67 137 191q77 97 81 126l-8 8q-116 -59 -421 -413l-353 -424q321 -50 844 -174l-146 -136q-90 -76 -178 -76q-129 0 -395.5 59.5t-405.5 59.5q-54 0 -144.5 -35.5t-142.5 -35.5l-54 33q2 37 75 147
t104 117q38 10 279 40l573 680q107 127 248 258q198 183 278 183q93 0 93 -190q0 -34 -106 -218q-83 -146 -137 -226z" />
    <glyph glyph-name="M" unicode="M" horiz-adv-x="2378" 
d="M1846 227q0 -43 18 -76q23 -41 63 -41q72 0 259 153q130 106 237 215l7 -75q-79 -143 -301 -312q-237 -180 -381 -180q-171 0 -171 239q0 175 157 416q42 64 277 366q-104 -72 -566 -536q-439 -440 -449 -440q-49 0 -79 72q-22 55 -22 113q0 79 151 284l280 370
q152 210 153 297l-20 25q-93 -26 -337 -322l-421 -534q-224 -282 -275 -282q-95 0 -145 224q50 83 223 294q180 220 254 335q123 190 128 319l-38 35q-66 -2 -346 -162t-348 -163l-60 60q38 192 78 267q71 132 222 160l12 -10l-109 -118l10 -10l317 150q231 103 311 103
q41 0 99 -83q54 -79 54 -124q0 -73 -134 -384l14 -7l323 326q241 224 359 224q55 0 96 -46t41 -102q0 -81 -132 -308q-101 -174 -193 -298q45 31 469 413q370 333 431 333q45 0 91 -69q42 -63 42 -111q0 -51 -168 -248q-246 -289 -313 -381q-168 -233 -168 -371z" />
    <glyph glyph-name="N" unicode="N" horiz-adv-x="1740" 
d="M1321 223q0 -69 65 -69q96 0 407 344l11 -95q-422 -526 -637 -526q-65 0 -128 192l-3 -27l1 -5v5l2 18l5 58q9 81 88 240q45 91 373 691l-9 10l-319 -316q-173 -179 -296 -337q-18 -22 -149 -210q-93 -131 -161 -198l-42 -19l4 1l-21 8q-125 43 -125 110q0 51 129 265
l240 401q129 234 130 332l-49 46q-103 -2 -351 -168q-269 -181 -355 -202l-25 42q0 154 136 344q142 198 287 215l8 -12q-26 -61 -138 -147l5 -7q210 124 286 159q173 80 313 80q139 0 139 -116q0 -123 -149 -405l-228 -395q424 481 442 499q352 373 473 373q56 0 115 -71
t59 -129q0 -64 -138 -269l-257 -380q-138 -223 -138 -330z" />
    <glyph glyph-name="O" unicode="O" horiz-adv-x="1330" 
d="M460 -4q-185 0 -288 125q-95 117 -95 306q0 195 192 441q177 228 430 391q261 168 452 168q61 0 122 -53q63 -56 65 -115l-209 -124q68 20 109 20q160 0 160 -208q0 -210 -147 -438q-141 -218 -356 -362q-225 -151 -435 -151zM1122 1049q-134 0 -266 -91
q-84 -57 -194 -174q-97 -104 -121 -114q-21 16 -26 62q-95 -85 -162 -207q-76 -136 -76 -248q0 -136 89 -136q160 0 368 136q200 130 340 315q149 198 149 359q0 98 -101 98z" />
    <glyph glyph-name="P" unicode="P" horiz-adv-x="1544" 
d="M602 335l21 -2l-182 17l-95 -154l41 -30q-4 -55 -89 -156q-87 -104 -140 -104q-56 0 -56 65q0 68 79 211q4 8 122 203q-103 54 -103 123q0 124 331 204l339 447q-158 0 -368 -49l-361 -95l-22 18q38 256 349 353q194 60 531 60q647 0 647 -397q0 -379 -357 -557
q-240 -120 -687 -157zM976 1178q-1 -89 -102 -232l-163 -209q79 14 121 14q34 0 50 -15q-42 -43 -206 -62l-57 -84q168 -22 190 -22q181 0 423 122q277 139 277 298q0 178 -533 190z" />
    <glyph glyph-name="Q" unicode="Q" horiz-adv-x="1423" 
d="M624 295l281 -61q166 -34 285 -34q88 0 206 25q-75 -294 -219 -294q-187 0 -458 45l-456 76q-101 -84 -174 -85l-41 41q0 174 82 244q75 64 250 64q75 0 317 174q238 171 429 359q216 212 216 301q0 53 -83 53q-128 0 -387 -110q-252 -108 -355 -199l170 5l41 -13l-9 -33
q-15 -16 -77 -28l-88 -18q-23 -7 -128 -59q-91 -45 -118 -45q-41 0 -41 192q0 75 1 93q12 125 427 289q380 150 545 150q123 0 197 -62q78 -67 78 -187q0 -218 -349 -506q-128 -105 -542 -377z" />
    <glyph glyph-name="R" unicode="R" horiz-adv-x="1675" 
d="M593 530l350 -97q269 -78 414 -161q199 -115 199 -255q0 -77 -64 -77q-6 0 -505 184l-510 189l-184 -264q0 -56 -45.5 -99t-101.5 -44l-44 42q3 55 98 210l135 211l-83 31l-25 35q16 103 121 162q89 49 204 52l310 457q-273 -39 -477 -117q69 -1 104 -5q73 -8 92 -29
q-51 -22 -195 -40q-126 -16 -203 -16l-53 11l-16 45q0 264 418 384q278 80 635 80q610 0 610 -277q0 -241 -225 -380q-168 -103 -489 -161zM1398 1142h-90q-212 0 -336 -21q-1 -69 -94 -215l-140 -205q895 192 895 376q0 65 -235 65z" />
    <glyph glyph-name="S" unicode="S" horiz-adv-x="1484" 
d="M1168 972q-26 8 -30 22q38 74 157 152l-9 9q-169 0 -439 -69q-339 -85 -339 -199q0 -49 222 -96q309 -65 413 -107q222 -92 222 -249q0 -265 -405 -383q-266 -77 -623 -77q-94 0 -179 15q-137 25 -137 79q0 104 83 181q80 73 185 79l19 -13l-84 -76l111 -3q204 -4 481 44
q378 66 378 187q0 82 -231 127l-430 77q-231 60 -231 177q0 318 354 466q259 108 635 108q290 0 290 -98q0 -118 -79 -173l-178 -85q-48 -39 -156 -95z" />
    <glyph glyph-name="T" unicode="T" horiz-adv-x="1411" 
d="M989 260l51 -29q-2 -66 -110 -189t-171 -123q-40 0 -66.5 26.5t-26.5 66.5q0 142 306 567q59 83 426 555q-171 0 -571 -51q-473 -61 -503 -122q59 -9 83 -14q46 -11 79 -28l9 -20l-27 -17q-54 11 -165 12.5t-166 12.5l-10 48q0 57 39 222q32 133 380 205q248 52 478 52
q265 0 344 -22q193 -52 193 -245q0 -46 -268 -454z" />
    <glyph glyph-name="U" unicode="U" horiz-adv-x="1817" 
d="M1344 222q0 -33 26.5 -61t60.5 -28q68 0 217 108l202 161l4 -80q-63 -100 -272 -228q-213 -131 -325 -131q-63 0 -107.5 52t-44.5 116q0 106 124 324l192 311l-426 -407q-395 -358 -513 -363l6 1l-20 5q-46 10 -68 20q-37 18 -66 80q-26 57 -26 102q0 111 167 325
q82 105 311 354q170 184 173 219l-29 11q-84 0 -380 -160t-391 -160l-36 12l-17 24q12 276 384 462q312 155 619 155q65 0 106.5 -47t41.5 -113q0 -105 -171 -323q-11 -14 -319 -372q-172 -200 -174 -262l54 -40q145 43 433 315q23 22 477 481q247 249 307 253l59 -140
q0 -78 -150 -285l-279 -375q-150 -216 -150 -316z" />
    <glyph glyph-name="V" unicode="V" horiz-adv-x="1454" 
d="M728 -65q-79 0 -152 94q-68 89 -68 171q0 164 169 485l267 467q-246 -121 -301 -152q-204 -112 -258 -191l114 5q50 2 90 -21l-94 -40q-94 -28 -281 -92q-57 -22 -56 -22q-48 0 -48 104q0 151 87 249q70 79 437.5 260.5t466.5 181.5q48 0 91 -59q40 -54 40 -104
t-137 -269q-214 -340 -255 -413q-137 -245 -137 -358q0 -18 18 -47q19 -32 36 -32q83 0 320 333q28 40 288 436l-4 28q0 71 77 193q83 129 148 129q39 0 39 -68q0 -107 -186 -426q-181 -311 -385 -561q-227 -281 -326 -281z" />
    <glyph glyph-name="W" unicode="W" horiz-adv-x="2037" 
d="M1317 -25q-83 0 -147.5 67t-64.5 150q0 82 50 227l83 225q-273 -306 -357 -392q-281 -281 -394 -281q-65 0 -124 84q-55 78 -55 145q0 90 175 302q29 34 326 362q175 194 175 241q0 46 -77 46q-137 0 -418 -141q-286 -143 -331 -144l-48 64q4 135 122 284t248 188l3 -9
l-64 -109q190 72 265 94q152 45 275 45q227 0 227 -264q0 -95 -150 -297q-52 -70 -283 -346q-157 -187 -166 -238l8 -14q92 7 357 279l461 502q247 268 302 268q41 0 71 -45q26 -39 26 -82q0 -33 -137 -235q-197 -290 -256 -387q-138 -228 -139 -325l20 -31q129 3 408 344
q265 324 301 475l-18 31q0 53 53 142q56 96 106 96q41 0 41 -133q0 -150 -155.5 -441.5t-349.5 -505.5q-220 -241 -369 -241z" />
    <glyph glyph-name="X" unicode="X" horiz-adv-x="1432" 
d="M1444 1082l-322 -304l-44 -534q-3 -30 9 -55q15 -31 43 -31q78 0 250 137l30 -51q-79 -98 -202 -192q-150 -117 -241 -117q-88 0 -110 114q-2 13 -5 51q-1 31 -3 31q-7 0 -6 -13q1 -14 7 -14l2 14l1 15l4 69q10 184 9 328l-335 -330q-259 -242 -352 -244l-42 44
q0 104 67 172q43 44 144 93q105 52 137 81l401 376l21 478q-254 -78 -311 -99q-175 -63 -293 -142q121 0 179 -15q-145 -56 -176 -67q-130 -46 -169 -49l-35 42q6 251 354 417q287 136 568 136q146 0 146 -139q0 -20 -33 -331l221 221q171 164 228 170l22 -44
q0 -65 -48 -138q-53 -79 -116 -80z" />
    <glyph glyph-name="Y" unicode="Y" horiz-adv-x="1544" 
d="M988 29l8 -17q75 13 228 113q139 89 235 89l29 -15q-7 -28 -395.5 -361t-410.5 -333q-38 0 -63.5 27t-25.5 66q0 136 283 563q108 162 397 556l-431 -383q-344 -292 -428 -292q-62 0 -103 51q-38 47 -38 111q0 94 315 476q324 391 334 451l-18 11q-84 -2 -371 -174
q-305 -183 -402 -204l-29 37q31 194 115 280q91 93 404.5 225t443.5 132q142 0 142 -100q0 -96 -159 -304l-296 -360q-162 -197 -167 -265l37 -26q95 13 503 388q404 371 419 371q35 0 68 -51q30 -47 30 -84q0 -35 -307 -443q-317 -423 -347 -535z" />
    <glyph glyph-name="Z" unicode="Z" horiz-adv-x="1342" 
d="M910 688q279 -26 285 -251q41 17 127 35l26 -16q-27 -58 -149 -91q-45 -256 -350 -541q-311 -292 -564 -292q-65 0 -105 43q-18 19 -60 96l-1 -8l12 -24q32 5 149 184q128 194 164 222q201 153 576 331q-18 115 -129 115q-133 0 -319 -94q-242 -122 -304 -141l-20 29
q23 198 278 351q40 25 460 217q242 111 242 208q0 61 -115 61q-174 0 -501 -163q-44 -22 -481 -265q0 367 332 566q279 167 679 167q123 0 209 -58q99 -66 99 -183q0 -182 -190 -318q-76 -53 -350 -180zM341 -283q11 -5 25 -10q138 0 359 210q196 187 273 340
q-189 -95 -380 -233q-264 -192 -277 -307z" />
    <glyph glyph-name="bracketleft" unicode="[" horiz-adv-x="793" 
d="M1114 1292h-333l-356 -1386h358l-54 -174h-609l447 1735h601z" />
    <glyph glyph-name="bracketright" unicode="]" horiz-adv-x="793" 
d="M504 -268h-600l55 174h333l361 1386h-362l53 175h610z" />
    <glyph glyph-name="underscore" unicode="_" horiz-adv-x="1040" 
d="M4 -383v175h1032v-175h-1032z" />
    <glyph glyph-name="grave" unicode="`" horiz-adv-x="728" 
d="M618 849q-134 36 -485 52q-39 1 -82 5q22 3 68 5l-21 8q-5 27 -5 72q0 97 49 97q37 0 104 -23l102 -37l171 -50q105 -41 116 -117z" />
    <glyph glyph-name="a" unicode="a" horiz-adv-x="1011" 
d="M537 -48q-36 0 -58 33q-19 29 -19 67q0 79 82 242l-9 9l-200 -168q-158 -127 -203 -127q-66 0 -129 90q-57 84 -57 154q0 183 295 362q270 162 468 162q46 0 85 -25q44 -29 44 -73q-21 -28 -75 -47q63 -30 63 -78q0 -50 -88.5 -155t-88.5 -167q0 -52 56 -52q94 0 306 167
l14 -76q-105 -106 -228 -195q-169 -123 -258 -123zM85 191q0 -45 41 -45q114 0 537 436q-305 -107 -354 -131q-224 -112 -224 -260z" />
    <glyph glyph-name="b" unicode="b" horiz-adv-x="832" 
d="M158 395q-17 -72 -17 -87q0 -54 26 -98q30 -52 81 -52q70 0 150 115l-28 77q0 90 96 205q98 119 185 119q65 0 65 -73q0 -63 -36 -143l-68 -133l41 -5q88 0 185 74l15 -56q-114 -124 -326 -130q-204 -225 -340 -225q-99 0 -147 101q-36 77 -36 189q0 457 515 918
q76 68 170 135q130 93 181 93q52 0 52 -77q0 -164 -310 -502q-123 -134 -454 -445zM217 577q203 200 311 323q200 229 239 360q-359 -291 -550 -683z" />
    <glyph glyph-name="c" unicode="c" horiz-adv-x="747" 
d="M231 -21q-119 0 -182 104q-53 87 -53 215q0 170 220 339q209 160 385 160q38 0 66 -24.5t28 -61.5q0 -62 -82 -167q-85 -109 -145 -109q-48 0 -64 96q-146 -101 -162 -114q-105 -87 -105 -153q0 -48 60 -83q53 -31 104 -31q175 0 460 240l23 -77q-322 -334 -553 -334z
" />
    <glyph glyph-name="d" unicode="d" horiz-adv-x="1045" 
d="M658 256q0 -98 49 -98q58 0 172 85l159 129l19 -67q-322 -322 -484 -322q-47 0 -71 60q-19 45 -19 98q0 75 24 161q-282 -273 -370 -273q-68 0 -113 98q-36 81 -36 158q0 158 212 317q200 149 364 149q79 0 97 -67q129 253 172 325q144 239 229 239q29 0 48.5 -25.5
t19.5 -55.5q0 -91 -123 -265l-227 -318q-122 -193 -122 -328zM162 248q0 -40 33 -40q65 0 227 156q158 152 177 223q-198 -59 -281 -107q-156 -92 -156 -232z" />
    <glyph glyph-name="e" unicode="e" horiz-adv-x="743" 
d="M218 -29q-107 0 -171 80q-59 74 -59 184q0 200 172.5 374.5t372.5 174.5q158 0 158 -102q0 -209 -495 -375l-13 -55q0 -50 45 -82q40 -29 92 -29q137 0 429 243l18 -75q-301 -338 -549 -338zM513 665l-18 1q-87 5 -180 -94q-72 -77 -119 -178q97 37 192 102
q128 88 128 156z" />
    <glyph glyph-name="f" unicode="f" horiz-adv-x="647" 
d="M250 356q43 -21 72 -72q1 -2 42 -94l281 174l20 -65q-119 -126 -268 -203l9 -76q0 -343 -477 -531l5 -1l13 2l-5 5l-49 33.5t-37 42.5q-31 62 -31 165q0 138 147 410q-66 77 -66 131q0 63 106 127q136 82 154 103q34 42 156 259q134 239 206 342q119 172 188 172
q35 0 35 -86q0 -142 -200 -432zM251 61q-49 -5 -55 -5q-42 0 -96 27q-104 -195 -104 -274q0 -59 46 -160q92 52 153 154t61 208q0 5 -5 50z" />
    <glyph glyph-name="g" unicode="g" horiz-adv-x="922" 
d="M33 -520q-18 0 -31.5 17t-13.5 35q0 86 98 189q53 56 192 166q116 91 135 127l164 319q-304 -296 -444 -296q-70 0 -110 88q-31 70 -31 150q0 166 230 340q219 165 392 165q93 0 93 -52q0 -51 -148 -125q-244 -121 -277 -142q-149 -96 -149 -201q0 -18 15.5 -35t34.5 -17
q85 0 218 113q72 61 211 209q106 113 125 113q33 0 56 -36q21 -32 21 -66q0 -32 -87 -193l-114 -203l9 -9l313 227l11 -80l-446 -332q-30 -23 -119 -153q-100 -148 -160 -212q-101 -106 -188 -106z" />
    <glyph glyph-name="h" unicode="h" horiz-adv-x="918" 
d="M464 -12q-81 0 -81 114q0 80 84 205q17 24 141 182q-62 -32 -311 -256l-241 -216q-69 0 -69 221q0 134 174 413q163 263 364 474q216 228 324 228q25 0 59 -22l10 -27q0 -148 -791 -965v-88q497 419 602 419q30 0 60.5 -30t30.5 -60q0 -42 -109 -165q-113 -128 -122 -193
l32 -35q92 2 298 151l11 -80q-338 -270 -466 -270z" />
    <glyph glyph-name="i" unicode="i" horiz-adv-x="576" 
d="M472 764q-33 0 -57 26t-24 59q0 61 56 109q53 45 115 45q68 0 68 -65q0 -59 -50 -116.5t-108 -57.5zM152 -29q-86 0 -132 84q-37 67 -37 161q0 142 118 312q127 184 261 184q81 0 81 -59q0 -64 -117 -187q-90 -94 -176 -156l-4 -33q0 -102 118 -102q70 0 161 60
q9 6 140 107l15 -68q-87 -114 -189 -195q-135 -108 -239 -108z" />
    <glyph glyph-name="j" unicode="j" horiz-adv-x="747" 
d="M609 857q-34 0 -59.5 27.5t-25.5 62.5q0 56 56 106q53 48 111 48q77 0 77 -73q0 -59 -50.5 -115t-108.5 -56zM309 15q-262 -475 -378 -475q-54 0 -54 86q0 94 72 179q39 47 142 129q89 70 108 107l274 531l-224 -91q-133 -52 -230 -70l32 109q24 75 44 99q24 32 229 104
q201 70 253 70q89 0 89 -73q0 -48 -114 -266l-151 -280l8 -9l335 199l15 -81z" />
    <glyph glyph-name="k" unicode="k" horiz-adv-x="1007" 
d="M541 -40q-136 0 -292 259q-27 -23 -92 -114q-56 -77 -88 -93l3 2q-3 -1 -6 -1q-19 0 -42 27q-13 15 -32 97q-10 40 -13 61v-6l-6 54l2 -11l2 7l6 37q8 52 37 152q39 91 121 203q137 190 374 421q301 292 436 293l37 -35q-3 -101 -378 -490l-487 -484l-5 -68
q560 489 700 489q44 0 74 -56q26 -47 26 -94q0 -120 -158 -233q-45 -32 -262 -149q62 -99 132 -99q69 0 202 93q31 22 185 145l19 -80l-233 -200q-165 -127 -262 -127zM716 549q-114 0 -371 -210q61 -17 106 -55q109 65 165 108q103 77 127 140q-10 17 -27 17z" />
    <glyph glyph-name="l" unicode="l" horiz-adv-x="626" 
d="M175 400q-13 -66 -13 -98q0 -140 119 -140q137 0 352 205l24 -58q-170 -177 -211 -210q-137 -111 -267 -111q-187 0 -187 258q0 462 539 949q103 93 139 93q29 0 29 -77q0 -198 -180 -451q-150 -210 -344 -360zM213 567q227 190 341 484q-204 -141 -341 -484z" />
    <glyph glyph-name="m" unicode="m" horiz-adv-x="1479" 
d="M984 -29q-35 0 -66.5 37t-31.5 73q0 99 159 341l-8 16l-258 -255q-197 -183 -276 -183q-34 0 -57.5 25.5t-23.5 59.5q0 73 87 199q94 137 105 196l-17 12q-62 -33 -262 -269q-185 -219 -225 -219q-61 0 -100 78q-31 63 -31 130q0 144 104 307q115 180 250 180
q77 0 77 -52q0 -42 -118 -165q-125 -131 -138 -193l22 -30q229 230 309 301q238 212 337 212q36 0 58.5 -26.5t22.5 -63.5q0 -61 -76 -176l-117 -165l10 -9l267 229q163 136 289 194q23 -10 52 -60.5t29 -76.5q0 -34 -122 -169.5t-122 -192.5q0 -15 17.5 -37.5t32.5 -22.5
q50 0 326 188l15 -93q-418 -320 -520 -320z" />
    <glyph glyph-name="n" unicode="n" horiz-adv-x="959" 
d="M508 -29q-47 0 -78 44q-28 39 -28 88q0 76 65 189q12 21 115 173l-9 9q-36 -25 -254 -260q-188 -202 -242 -202q-49 0 -79 71q-23 56 -23 113q0 140 100 305q110 182 240 182q91 0 91 -40q0 -46 -113 -166q-128 -136 -147 -179l24 -26q49 22 182 151q177 172 239 224
q141 117 229 125q58 -52 58 -150q0 -42 -124 -171.5t-124 -203.5l18 -40l17 -11q47 1 158 85l150 121l15 -80q-189 -184 -224 -214q-163 -137 -256 -137z" />
    <glyph glyph-name="o" unicode="o" horiz-adv-x="824" 
d="M510 146q-153 -150 -302 -150q-111 0 -174 97q-55 84 -55 200q0 198 187 347q176 140 379 140q113 0 113 -60q0 -36 -52 -70q85 -6 85 -113t-84 -251l31 -5q61 0 184 113l22 -81q-67 -91 -145 -128q-70 -33 -189 -39zM127 223q0 -90 90 -90q83 0 175 89q-34 61 -34 95
q0 85 96 251q-152 -79 -215 -132q-112 -96 -112 -213z" />
    <glyph glyph-name="p" unicode="p" horiz-adv-x="1015" 
d="M472 -4q-92 0 -155 50q-42 -17 -101 -17q-48 0 -76 14l-135 -265q-110 -204 -167 -204q-42 0 -42 97q0 115 188 423l272 425v19l-330 -317l-7 85l312 362q314 343 404 343q85 0 85 -43q0 -13 -147 -195q-155 -192 -175 -251q313 210 424 210q39 0 62 -31t23 -71
q0 -155 -341 -455l81 -4q95 -6 200 68q31 22 166 144l15 -92q-315 -295 -556 -295zM635 524q-72 0 -200 -116q-109 -98 -162 -182q43 5 52 5q56 0 132 -24l121 139q73 92 80 157q-10 21 -23 21z" />
    <glyph glyph-name="q" unicode="q" horiz-adv-x="938" 
d="M707 87q-1 -137 -209 -388q-214 -257 -344 -257q-35 0 -66 54q-28 48 -28 85q0 74 232 385l302 392l-9 10l-221 -206q-166 -141 -242 -141q-66 0 -112 81q-39 69 -39 141q0 207 284 383q256 158 478 158q99 0 99 -56q0 -28 -24 -68q45 -21 45 -71q0 -58 -104 -195
l-151 -184l45 -10q52 0 148 67l137 105l22 -69zM118 200q137 1 332 156q153 121 268 269q-205 -46 -369 -140q-224 -128 -231 -285zM561 25l-85 4l-133 -188q-81 -121 -101 -201q101 34 207 138q117 115 117 210q0 6 -5 37z" />
    <glyph glyph-name="r" unicode="r" horiz-adv-x="724" 
d="M320 -12q-56 0 -98.5 43.5t-42.5 99.5q0 98 62 199q37 59 131 165l-9 9q-129 -27 -220 -49q-37 -65 -112 -135l-134 -116l-7 79q64 49 143 160q-62 -1 -62 52q0 76 95 189t169 113q29 0 29 -34q0 -22 -19 -61q247 37 300 37q77 0 77 -133q0 -56 -121.5 -166.5
t-121.5 -187.5q0 -25 22 -45t46 -20q77 0 289 188l11 -70q-87 -99 -198 -192q-151 -125 -229 -125z" />
    <glyph glyph-name="s" unicode="s" horiz-adv-x="747" 
d="M235 -25q-115 0 -209 63q-99 66 -130 173l-50 -28q-25 0 -25 34q0 52 219 250l280 243q0 50 34.5 88t84.5 38q63 0 92 -130q18 -84 18 -182q0 -211 -277 -381q50 -6 61 -6q98 0 210 75q45 29 179 143l16 -77q-315 -303 -503 -303zM345 456q0 5 -26 145l-317 -292
q66 -6 103 -37q24 -19 68 -86q172 84 172 224v46z" />
    <glyph glyph-name="t" unicode="t" horiz-adv-x="610" 
d="M377 614q-194 -247 -194 -398q0 -28 20 -52q21 -27 48 -27q54 0 181 91l174 131l12 -85q-159 -149 -250 -213q-167 -117 -295 -117q-47 0 -77 44q-25 39 -25 89q0 90 55 209l-9 9l-104 -84l-23 72q192 145 322 339q-143 0 -200 -11q90 158 140 195q61 44 233 60
q109 183 229 183q52 0 52 -34q0 -41 -81 -141l133 -8q-82 -160 -105 -187q-59 -69 -171 -69q-30 0 -65 4z" />
    <glyph glyph-name="u" unicode="u" horiz-adv-x="997" 
d="M557 -44q-135 0 -135 133q0 85 47 171l-8 15l-158 -162q-112 -101 -189 -101q-68 0 -109 69q-34 58 -34 131q0 183 122 345q131 175 309 175q66 0 66 -33q0 -55 -92 -137l-170 -147q-92 -89 -92 -159l5 -22l17 -20q108 24 284 173q39 33 283 263q144 135 184 134
q43 -19 43 -106q0 -56 -73 -133l-138 -142q-77 -91 -84 -177l17 -34l34 -13q87 0 322 196l11 -80q-317 -339 -462 -339z" />
    <glyph glyph-name="v" unicode="v" horiz-adv-x="886" 
d="M657 175q-33 0 -121 61q-70 -76 -167 -151q-126 -97 -190 -97q-92 0 -147 112q-44 90 -44 193q0 138 95 301q108 182 234 182q110 0 110 -48q0 -62 -104 -192q-93 -117 -160 -163q-34 -86 -34 -138q0 -17 10 -42q12 -31 27 -31q92 0 290 198q0 96 106 250
q112 162 202 162q54 0 54 -65q0 -102 -172 -354q43 -33 69 -33q54 0 181 83l11 -77q-40 -48 -114 -97q-84 -54 -136 -54z" />
    <glyph glyph-name="w" unicode="w" horiz-adv-x="1321" 
d="M1117 183q-57 0 -121 49q-276 -265 -365 -265q-117 0 -117 196q0 53 9 98l-143 -148q-113 -109 -154 -109q-113 0 -180 79q-63 74 -63 190q0 132 148 329q153 203 275 203q123 0 123 -76q0 -84 -358 -386q-13 -141 -13 -116q0 -38 25 -52q81 38 353 314q262 266 265 266
q22 0 55 -15q39 -18 39 -36q0 -34 -116.5 -217.5t-116.5 -270.5q0 -45 45 -45q48 0 209 156l-9 48q0 74 101 209q104 140 174 140q62 0 62 -102q0 -131 -142 -290l75 -34q54 0 163 91l4 -80q-101 -126 -227 -126z" />
    <glyph glyph-name="x" unicode="x" horiz-adv-x="724" 
d="M312 -29q-91 0 -91 179q0 17 2 71q-30 -16 -130 -120q-81 -84 -145 -84l-8 20q0 51 60.5 116t111.5 70l115 108l-4 256l-100 -58q-59 -34 -105 -45l-14 20q12 47 166.5 178.5t199.5 131.5q44 0 23 -303l150 138q117 102 156 102q25 0 25 -31q0 -65 -58 -124t-123 -59
l-145 -144q-5 -68 -5 -77q0 -116 75 -116q57 0 143 62q22 16 125 104l11 -75q-153 -153 -202 -195q-147 -125 -233 -125z" />
    <glyph glyph-name="y" unicode="y" horiz-adv-x="918" 
d="M231 -443q-60 30 -60 118q0 59 147 307l196 320q-336 -264 -376 -264q-56 0 -106 92q-44 82 -44 143q0 119 139 311q147 200 260 200q32 0 59.5 -29t27.5 -60q0 -68 -161 -212q-167 -149 -180 -246l16 -10q84 1 241 137q48 42 261 252q137 135 174 135q49 0 49 -98
q0 -78 -166 -320l-231 -317l10 -9l462 408l18 -68l-385 -426q-330 -361 -351 -364z" />
    <glyph glyph-name="z" unicode="z" horiz-adv-x="764" 
d="M456 58q-16 -166 -178 -356q-171 -201 -330 -201q-39 0 -64 34q-21 31 -21 72q0 97 183 260q14 12 270 212q-5 58 -40 88q-21 18 -79.5 39t-86.5 42v0l2 -4q16 53 167 167l210 157l-9 9l-255 -40l-235 -256l-19 63l152 180q-67 0 -67 45q0 54 85 137t140 83q48 0 48 -70
q36 5 138 36q86 25 139 25q30 0 49 -66q15 -51 15 -92q0 -51 -138 -151l-190 -126q80 -57 116 -169l327 251l4 -80zM-42 -402q116 17 227 136q101 111 134 233l-215 -160q-133 -112 -146 -209z" />
    <glyph glyph-name="braceleft" unicode="{" horiz-adv-x="728" 
d="M464 596q94 -20 94 -109q0 -115 -84.5 -325t-84.5 -324q0 -73 57 -108q-51 -7 -109 -7q-69 0 -127 18q-84 26 -84 80q0 110 79.5 331.5t79.5 338.5q0 77 -55 106q133 52 186 287q80 359 95 392q90 195 325 187l93 -4q-113 -46 -167 -247l-88 -364q-67 -202 -210 -252z
" />
    <glyph glyph-name="braceright" unicode="}" horiz-adv-x="728" 
d="M428 1463l113 4q210 7 210 -123q0 -113 -81 -320.5t-81 -319.5q0 -81 65 -112q-133 -42 -185 -277q-80 -361 -96 -397q-92 -200 -331 -191l-89 4q114 48 168 251l85 362q64 199 203 243l-50 32q-38 26 -38 76q0 115 81 328.5t81 328.5q0 83 -55 111z" />
    <glyph glyph-name="Adieresis" unicode="&#xc4;" horiz-adv-x="1621" 
d="M1773 1540q-32 0 -72 20q-47 23 -47 53q0 58 38 107q41 53 98 53q116 0 116 -63q0 -55 -38 -110q-42 -60 -95 -60zM1378 1540q-32 0 -72 20q-45 23 -45 53q0 58 37 107q41 53 96 53q119 0 119 -63q0 -55 -40 -110q-42 -60 -95 -60zM1378 728l138 7l54 -13
q-96 -133 -145 -231l-169 -8l-135 -264l42 -36q45 10 98 47l86 68l29 -50q-265 -265 -425 -265q-41 0 -69 38q-25 34 -25 77q0 73 57 188l96 178l-458 -17l-287 -299q-265 -262 -342 -262q-69 0 -69 37q0 84 138 203q124 107 219 135l169 186q-17 0 -51.5 -4t-52.5 -4
q-92 0 -109 40q25 107 159 196q127 84 242 84l50 -11l-16 -16q-132 2 -138 -37l40 -25q42 3 128 8q864 741 998 741q72 0 72 -89q0 -58 -139 -296zM820 698l341 22l310 514z" />
    <glyph glyph-name="Aring" unicode="&#xc5;" horiz-adv-x="1621" 
d="M1735 1475q-62 0 -105.5 48t-43.5 111q0 52 62.5 127.5t113.5 75.5q43 0 95.5 -51.5t52.5 -94.5q0 -84 -44 -146q-50 -70 -131 -70zM1378 728l138 7l54 -13q-96 -133 -145 -231l-169 -8l-135 -264l42 -36q45 10 98 47l86 68l29 -50q-265 -265 -425 -265q-41 0 -69 38
q-25 34 -25 77q0 73 57 188l96 178l-458 -17l-287 -299q-265 -262 -342 -262q-69 0 -69 37q0 84 138 203q124 107 219 135l169 186q-17 0 -51.5 -4t-52.5 -4q-92 0 -109 40q25 107 159 196q127 84 242 84l50 -11l-16 -16q-132 2 -138 -37l40 -25q42 3 128 8q864 741 998 741
q72 0 72 -89q0 -58 -139 -296zM1785 1738q-43 -22 -74.5 -68t-31.5 -93q0 -7 10 -42q98 70 98 144zM820 698l341 22l310 514z" />
    <glyph glyph-name="Ccedilla" unicode="&#xc7;" horiz-adv-x="1488" 
d="M726 402q-40 0 -68 22q-32 24 -32 63q0 71 149 221q141 144 213 166l15 -54q98 72 208 200q134 155 135 239l-50 41q-169 0 -418 -211q-232 -197 -406 -462q-183 -278 -183 -456q0 -108 60 -172t167 -64q183 0 481 188q163 103 432 317l5 -26q0 -145 -375 -391
q-321 -211 -521 -271l-41 -81q198 2 198 -106q0 -67 -63 -105q-53 -32 -124 -32q-63 0 -144 21q-103 27 -112 68l18 19q11 -3 67 -26q41 -18 69 -18q40 0 72 20q38 23 38 61q0 68 -112 69l50 94l-65 -2q-185 -7 -293 95t-108 290q0 238 246 565q229 304 545 528
q330 234 555 234q185 0 185 -235q0 -121 -150 -321q-141 -190 -325 -334q-197 -154 -318 -154z" />
    <glyph glyph-name="Eacute" unicode="&#xc9;" horiz-adv-x="1459" 
d="M1328 1548q-16 -9 -50 -9q-17 0 -51 3.5t-51 3.5q-64 0 -185 -35.5t-182 -35.5q-8 0 -16 17q19 78 117 118l169 49l102 36q70 24 101 24q52 0 52 -90q0 -63 -6 -81zM1146 984l-16 13q16 60 163 162l-69 2q-164 5 -415 -69q-305 -90 -305 -214q0 -83 422 -83q76 0 174 3
t103 3q97 0 97 -58q0 -42 -40.5 -90.5t-82.5 -59.5l-316 -74q-257 -66 -402 -139q-199 -100 -199 -217q0 -36 108 -56q75 -13 140 -13q442 0 846 296q11 -55 11 -86q0 -241 -340 -372q-257 -98 -546 -98q-433 0 -433 251q0 222 328 398q221 119 527 191q-624 0 -624 256
q0 261 412 399q298 100 624 100q151 0 183 -16q56 -31 56 -165q0 -77 -162 -165q-123 -66 -244 -99z" />
    <glyph glyph-name="Ntilde" unicode="&#xd1;" horiz-adv-x="1740" 
d="M1539 1504q-53 0 -144 13q-105 15 -144 18q30 -15 43 -25q22 -17 25 -40l-15 -13q-78 38 -90 46q-53 35 -53 79q0 98 73 98q6 0 289 -31q-35 28 -81 83q9 20 21 20q51 0 104.5 -59.5t53.5 -111.5q0 -31 -25 -54t-57 -23zM1321 223q0 -69 65 -69q96 0 407 344l11 -95
q-422 -526 -637 -526q-65 0 -128 192l-3 -27l1 -5v5l2 18l5 58q9 81 88 240q45 91 373 691l-9 10l-319 -316q-173 -179 -296 -337q-18 -22 -149 -210q-93 -131 -161 -198l-42 -19l4 1l-21 8q-125 43 -125 110q0 51 129 265l240 401q129 234 130 332l-49 46
q-103 -2 -351 -168q-269 -181 -355 -202l-25 42q0 154 136 344q142 198 287 215l8 -12q-26 -61 -138 -147l5 -7q210 124 286 159q173 80 313 80q139 0 139 -116q0 -123 -149 -405l-228 -395q424 481 442 499q352 373 473 373q56 0 115 -71t59 -129q0 -64 -138 -269
l-257 -380q-138 -223 -138 -330z" />
    <glyph glyph-name="Odieresis" unicode="&#xd6;" horiz-adv-x="1330" 
d="M1338 1540q-32 0 -72 20q-47 23 -47 53q0 58 39 107q40 53 97 53q116 0 116 -63q0 -55 -38 -110q-42 -60 -95 -60zM943 1540q-32 0 -72 20q-45 23 -45 53q0 58 38 107q40 53 95 53q119 0 119 -63q0 -55 -39 -110q-43 -60 -96 -60zM460 -4q-185 0 -288 125
q-95 117 -95 306q0 195 192 441q177 228 430 391q261 168 452 168q61 0 122 -53q63 -56 65 -115l-209 -124q68 20 109 20q160 0 160 -208q0 -210 -147 -438q-141 -218 -356 -362q-225 -151 -435 -151zM1122 1049q-134 0 -266 -91q-84 -57 -194 -174q-97 -104 -121 -114
q-21 16 -26 62q-95 -85 -162 -207q-76 -136 -76 -248q0 -136 89 -136q160 0 368 136q200 130 340 315q149 198 149 359q0 98 -101 98z" />
    <glyph glyph-name="Udieresis" unicode="&#xdc;" horiz-adv-x="1817" 
d="M1723 1540q-32 0 -72 20q-47 23 -47 53q0 58 38 107q41 53 98 53q116 0 116 -63q0 -55 -38 -110q-42 -60 -95 -60zM1328 1540q-32 0 -72 20q-45 23 -45 53q0 58 38 107q40 53 95 53q119 0 119 -63q0 -55 -39 -110q-43 -60 -96 -60zM1344 222q0 -33 26.5 -61t60.5 -28
q68 0 217 108l202 161l4 -80q-63 -100 -272 -228q-213 -131 -325 -131q-63 0 -107.5 52t-44.5 116q0 106 124 324l192 311l-426 -407q-395 -358 -513 -363l6 1l-20 5q-46 10 -68 20q-37 18 -66 80q-26 57 -26 102q0 111 167 325q82 105 311 354q170 184 173 219l-29 11
q-84 0 -380 -160t-391 -160l-36 12l-17 24q12 276 384 462q312 155 619 155q65 0 106.5 -47t41.5 -113q0 -105 -171 -323q-11 -14 -319 -372q-172 -200 -174 -262l54 -40q145 43 433 315q23 22 477 481q247 249 307 253l59 -140q0 -78 -150 -285l-279 -375
q-150 -216 -150 -316z" />
    <glyph glyph-name="aacute" unicode="&#xe1;" horiz-adv-x="1011" 
d="M916 922q-16 -9 -50 -9q-17 0 -51 3.5t-51 3.5q-64 0 -185 -35.5t-182 -35.5q-8 0 -16 17q19 77 117 118l169 48l102 36q70 24 101 24q52 0 52 -90q0 -62 -6 -80zM537 -48q-36 0 -58 33q-19 29 -19 67q0 79 82 242l-9 9l-200 -168q-158 -127 -203 -127q-66 0 -129 90
q-57 84 -57 154q0 183 295 362q270 162 468 162q46 0 85 -25q44 -29 44 -73q-21 -28 -75 -47q63 -30 63 -78q0 -50 -88.5 -155t-88.5 -167q0 -52 56 -52q94 0 306 167l14 -76q-105 -106 -228 -195q-169 -123 -258 -123zM85 191q0 -45 41 -45q114 0 537 436
q-305 -107 -354 -131q-224 -112 -224 -260z" />
    <glyph glyph-name="agrave" unicode="&#xe0;" horiz-adv-x="1011" 
d="M759 853q-134 36 -484 52q-39 1 -83 5q22 4 68 6l-21 7q-5 27 -5 73q0 96 49 96q38 0 104 -22l103 -38l171 -50q105 -41 115 -116zM537 -48q-36 0 -58 33q-19 29 -19 67q0 79 82 242l-9 9l-200 -168q-158 -127 -203 -127q-66 0 -129 90q-57 84 -57 154q0 183 295 362
q270 162 468 162q46 0 85 -25q44 -29 44 -73q-21 -28 -75 -47q63 -30 63 -78q0 -50 -88.5 -155t-88.5 -167q0 -52 56 -52q94 0 306 167l14 -76q-105 -106 -228 -195q-169 -123 -258 -123zM85 191q0 -45 41 -45q114 0 537 436q-305 -107 -354 -131q-224 -112 -224 -260z" />
    <glyph glyph-name="acircumflex" unicode="&#xe2;" horiz-adv-x="1011" 
d="M830 837q-16 9 -100 82q-65 57 -104 57q-67 0 -180 -56l-176 -87q-6 3 -14 25q15 75 200 156q167 74 260 74q39 0 117 -67t78 -104q0 -30 -81 -80zM537 -48q-36 0 -58 33q-19 29 -19 67q0 79 82 242l-9 9l-200 -168q-158 -127 -203 -127q-66 0 -129 90q-57 84 -57 154
q0 183 295 362q270 162 468 162q46 0 85 -25q44 -29 44 -73q-21 -28 -75 -47q63 -30 63 -78q0 -50 -88.5 -155t-88.5 -167q0 -52 56 -52q94 0 306 167l14 -76q-105 -106 -228 -195q-169 -123 -258 -123zM85 191q0 -45 41 -45q114 0 537 436q-305 -107 -354 -131
q-224 -112 -224 -260z" />
    <glyph glyph-name="adieresis" unicode="&#xe4;" horiz-adv-x="1011" 
d="M839 926q-32 0 -72 20q-47 24 -47 53q0 59 39.5 109.5t95.5 50.5q117 0 117 -63q0 -55 -38 -110q-42 -60 -95 -60zM444 926q-33 0 -72 20q-45 24 -45 53q0 58 37 107q41 53 96 53q118 0 118 -63q0 -55 -39 -110q-43 -60 -95 -60zM537 -48q-36 0 -58 33q-19 29 -19 67
q0 79 82 242l-9 9l-200 -168q-158 -127 -203 -127q-66 0 -129 90q-57 84 -57 154q0 183 295 362q270 162 468 162q46 0 85 -25q44 -29 44 -73q-21 -28 -75 -47q63 -30 63 -78q0 -50 -88.5 -155t-88.5 -167q0 -52 56 -52q94 0 306 167l14 -76q-105 -106 -228 -195
q-169 -123 -258 -123zM85 191q0 -45 41 -45q114 0 537 436q-305 -107 -354 -131q-224 -112 -224 -260z" />
    <glyph glyph-name="atilde" unicode="&#xe3;" horiz-adv-x="1011" 
d="M772 857q-54 0 -145 13q-105 15 -144 18q31 -15 43 -25q23 -18 25 -40l-14 -13q-79 38 -91 46q-53 35 -53 79q0 98 73 98q6 0 289 -31q-35 28 -80 82q8 21 20 21q51 0 104.5 -59.5t53.5 -111.5q0 -31 -25 -54t-56 -23zM537 -48q-36 0 -58 33q-19 29 -19 67q0 79 82 242
l-9 9l-200 -168q-158 -127 -203 -127q-66 0 -129 90q-57 84 -57 154q0 183 295 362q270 162 468 162q46 0 85 -25q44 -29 44 -73q-21 -28 -75 -47q63 -30 63 -78q0 -50 -88.5 -155t-88.5 -167q0 -52 56 -52q94 0 306 167l14 -76q-105 -106 -228 -195q-169 -123 -258 -123z
M85 191q0 -45 41 -45q114 0 537 436q-305 -107 -354 -131q-224 -112 -224 -260z" />
    <glyph glyph-name="aring" unicode="&#xe5;" horiz-adv-x="1011" 
d="M805 841q-62 0 -106 47.5t-44 110.5q0 53 63 128.5t114 75.5q43 0 95.5 -51.5t52.5 -94.5q0 -85 -44 -147q-50 -69 -131 -69zM537 -48q-36 0 -58 33q-19 29 -19 67q0 79 82 242l-9 9l-200 -168q-158 -127 -203 -127q-66 0 -129 90q-57 84 -57 154q0 183 295 362
q270 162 468 162q46 0 85 -25q44 -29 44 -73q-21 -28 -75 -47q63 -30 63 -78q0 -50 -88.5 -155t-88.5 -167q0 -52 56 -52q94 0 306 167l14 -76q-105 -106 -228 -195q-169 -123 -258 -123zM855 1103q-44 -22 -75 -68t-31 -93q0 -7 10 -42q98 70 98 145zM85 191q0 -45 41 -45
q114 0 537 436q-305 -107 -354 -131q-224 -112 -224 -260z" />
    <glyph glyph-name="ccedilla" unicode="&#xe7;" horiz-adv-x="747" 
d="M326 -9l-52 -110q194 1 194 -104q0 -67 -62 -108q-54 -35 -125 -35q-58 0 -143 22q-107 28 -109 67l16 21q14 -4 68 -27q42 -19 70 -19q39 0 72 22q38 24 38 61q0 66 -116 69l69 129q-246 0 -246 310q0 178 215 347q204 161 386 161q38 0 66 -24.5t28 -61.5
q0 -62 -82 -167q-85 -109 -145 -109q-46 0 -64 96q-154 -107 -162 -114q-105 -86 -105 -153q0 -48 60 -83q53 -31 104 -31q175 0 460 240l23 -77q-142 -136 -210 -188q-122 -93 -248 -134z" />
    <glyph glyph-name="eacute" unicode="&#xe9;" horiz-adv-x="743" 
d="M783 918q-16 -10 -50 -10q-17 0 -51 4t-51 4q-64 0 -185 -35.5t-182 -35.5q-9 0 -16 17q19 77 117 117l169 49l102 36q70 24 101 24q52 0 52 -90q0 -62 -6 -80zM218 -29q-107 0 -171 80q-59 74 -59 184q0 200 172.5 374.5t372.5 174.5q158 0 158 -102q0 -209 -495 -375
l-13 -55q0 -50 45 -82q40 -29 92 -29q137 0 429 243l18 -75q-301 -338 -549 -338zM513 665l-18 1q-87 5 -180 -94q-72 -77 -119 -178q97 37 192 102q128 88 128 156z" />
    <glyph glyph-name="egrave" unicode="&#xe8;" horiz-adv-x="743" 
d="M626 849q-134 36 -484 52q-39 1 -83 5q22 3 68 5l-21 8q-5 27 -5 72q0 97 49 97q38 0 104 -23l103 -37l171 -50q104 -41 115 -117zM218 -29q-107 0 -171 80q-59 74 -59 184q0 200 172.5 374.5t372.5 174.5q158 0 158 -102q0 -209 -495 -375l-13 -55q0 -50 45 -82
q40 -29 92 -29q137 0 429 243l18 -75q-301 -338 -549 -338zM513 665l-18 1q-87 5 -180 -94q-72 -77 -119 -178q97 37 192 102q128 88 128 156z" />
    <glyph glyph-name="ecircumflex" unicode="&#xea;" horiz-adv-x="743" 
d="M688 841q-15 9 -99 82q-65 57 -104 57q-67 0 -181 -56q-171 -85 -176 -87q-5 3 -13 25q15 75 199 156q168 74 260 74q39 0 117.5 -67t78.5 -104q0 -30 -82 -80zM218 -29q-107 0 -171 80q-59 74 -59 184q0 200 172.5 374.5t372.5 174.5q158 0 158 -102q0 -209 -495 -375
l-13 -55q0 -50 45 -82q40 -29 92 -29q137 0 429 243l18 -75q-301 -338 -549 -338zM513 665l-18 1q-87 5 -180 -94q-72 -77 -119 -178q97 37 192 102q128 88 128 156z" />
    <glyph glyph-name="edieresis" unicode="&#xeb;" horiz-adv-x="743" 
d="M704 930q-33 0 -73 20q-46 24 -46 53q0 59 39.5 109.5t95.5 50.5q116 0 116 -62q0 -55 -38 -110q-41 -61 -94 -61zM308 930q-32 0 -71 20q-45 24 -45 53q0 58 37 107q40 53 96 53q118 0 118 -62q0 -55 -39 -111q-43 -60 -96 -60zM218 -29q-107 0 -171 80q-59 74 -59 184
q0 200 172.5 374.5t372.5 174.5q158 0 158 -102q0 -209 -495 -375l-13 -55q0 -50 45 -82q40 -29 92 -29q137 0 429 243l18 -75q-301 -338 -549 -338zM513 665l-18 1q-87 5 -180 -94q-72 -77 -119 -178q97 37 192 102q128 88 128 156z" />
    <glyph glyph-name="iacute" unicode="&#xed;" horiz-adv-x="576" 
d="M702 918q-17 -10 -50 -10q-17 0 -51 4t-52 4q-63 0 -184 -35.5t-182 -35.5q-9 0 -16 17q19 77 117 117l169 49l102 36q70 24 101 24q52 0 52 -90q0 -62 -6 -80zM154 -25q-86 0 -133 83q-38 67 -38 160q0 142 118 313q127 185 261 185q81 0 81 -59q0 -67 -115 -190
q-99 -104 -178 -152l-4 -34q0 -102 122 -102q74 0 160 59l137 109l15 -73q-82 -112 -187 -194q-133 -105 -239 -105z" />
    <glyph glyph-name="igrave" unicode="&#xec;" horiz-adv-x="576" 
d="M541 849q-134 36 -485 52q-39 1 -82 5q22 3 68 5l-21 8q-5 27 -5 72q0 97 49 97q37 0 104 -23l102 -37l171 -50q105 -41 116 -117zM154 -25q-86 0 -133 83q-38 67 -38 160q0 142 118 313q127 185 261 185q81 0 81 -59q0 -67 -115 -190q-99 -104 -178 -152l-4 -34
q0 -102 122 -102q74 0 160 59l137 109l15 -73q-82 -112 -187 -194q-133 -105 -239 -105z" />
    <glyph glyph-name="icircumflex" unicode="&#xee;" horiz-adv-x="576" 
d="M605 841q-15 9 -99 82q-65 57 -105 57q-66 0 -180 -56q-171 -85 -176 -87q-6 3 -14 25q16 75 200 156q167 74 260 74q39 0 117.5 -67t78.5 -104q0 -30 -82 -80zM154 -25q-86 0 -133 83q-38 67 -38 160q0 142 118 313q127 185 261 185q81 0 81 -59q0 -67 -115 -190
q-99 -104 -178 -152l-4 -34q0 -102 122 -102q74 0 160 59l137 109l15 -73q-82 -112 -187 -194q-133 -105 -239 -105z" />
    <glyph glyph-name="idieresis" unicode="&#xef;" horiz-adv-x="576" 
d="M618 934q-32 0 -72 20q-47 24 -47 53q0 59 39.5 109.5t96.5 50.5q116 0 116 -62q0 -55 -38 -110q-42 -61 -95 -61zM223 934q-32 0 -71 20q-46 24 -46 53q0 58 38 107q40 53 95 53q119 0 119 -62q0 -55 -39 -111q-43 -60 -96 -60zM154 -25q-86 0 -133 83q-38 67 -38 160
q0 142 118 313q127 185 261 185q81 0 81 -59q0 -67 -115 -190q-99 -104 -178 -152l-4 -34q0 -102 122 -102q74 0 160 59l137 109l15 -73q-82 -112 -187 -194q-133 -105 -239 -105z" />
    <glyph glyph-name="ntilde" unicode="&#xf1;" horiz-adv-x="959" 
d="M740 861q-53 0 -144 13q-105 15 -144 18q30 -15 43 -25q22 -17 25 -40l-15 -13q-78 38 -90 46q-53 35 -53 79q0 98 73 98q6 0 289 -31q-35 28 -81 83q9 20 21 20q51 0 104.5 -59.5t53.5 -111.5q0 -31 -25 -54t-57 -23zM508 -29q-47 0 -78 44q-28 39 -28 88q0 76 65 189
q12 21 115 173l-9 9q-36 -25 -254 -260q-188 -202 -242 -202q-49 0 -79 71q-23 56 -23 113q0 140 100 305q110 182 240 182q91 0 91 -40q0 -46 -113 -166q-128 -136 -147 -179l24 -26q49 22 182 151q177 172 239 224q141 117 229 125q58 -52 58 -150q0 -42 -124 -171.5
t-124 -203.5l18 -40l17 -11q47 1 158 85l150 121l15 -80q-189 -184 -224 -214q-163 -137 -256 -137z" />
    <glyph glyph-name="oacute" unicode="&#xf3;" horiz-adv-x="824" 
d="M831 922q-17 -9 -50 -9q-17 0 -51 3.5t-52 3.5q-63 0 -184 -35.5t-182 -35.5q-9 0 -16 17q19 77 117 118l169 48l102 36q70 24 101 24q52 0 52 -90q0 -62 -6 -80zM510 146q-153 -150 -302 -150q-111 0 -174 97q-55 84 -55 200q0 198 187 347q176 140 379 140
q113 0 113 -60q0 -36 -52 -70q85 -6 85 -113t-84 -251l31 -5q61 0 184 113l22 -81q-67 -91 -145 -128q-70 -33 -189 -39zM127 223q0 -90 90 -90q83 0 175 89q-34 61 -34 95q0 85 96 251q-152 -79 -215 -132q-112 -96 -112 -213z" />
    <glyph glyph-name="ograve" unicode="&#xf2;" horiz-adv-x="824" 
d="M666 849q-134 36 -485 52q-39 1 -82 5q22 3 67 5l-21 8q-4 27 -4 72q0 97 49 97q37 0 103 -23l103 -37l171 -50q105 -41 115 -117zM510 146q-153 -150 -302 -150q-111 0 -174 97q-55 84 -55 200q0 198 187 347q176 140 379 140q113 0 113 -60q0 -36 -52 -70
q85 -6 85 -113t-84 -251l31 -5q61 0 184 113l22 -81q-67 -91 -145 -128q-70 -33 -189 -39zM127 223q0 -90 90 -90q83 0 175 89q-34 61 -34 95q0 85 96 251q-152 -79 -215 -132q-112 -96 -112 -213z" />
    <glyph glyph-name="ocircumflex" unicode="&#xf4;" horiz-adv-x="824" 
d="M728 841q-16 9 -100 82q-65 57 -104 57q-67 0 -180 -56l-176 -87q-6 3 -14 25q15 75 200 156q167 74 260 74q39 0 117 -67t78 -104q0 -30 -81 -80zM510 146q-153 -150 -302 -150q-111 0 -174 97q-55 84 -55 200q0 198 187 347q176 140 379 140q113 0 113 -60
q0 -36 -52 -70q85 -6 85 -113t-84 -251l31 -5q61 0 184 113l22 -81q-67 -91 -145 -128q-70 -33 -189 -39zM127 223q0 -90 90 -90q83 0 175 89q-34 61 -34 95q0 85 96 251q-152 -79 -215 -132q-112 -96 -112 -213z" />
    <glyph glyph-name="odieresis" unicode="&#xf6;" horiz-adv-x="824" 
d="M741 930q-32 0 -72 20q-47 24 -47 53q0 59 39.5 109.5t96.5 50.5q116 0 116 -62q0 -55 -38 -110q-42 -61 -95 -61zM346 930q-33 0 -72 20q-45 24 -45 53q0 58 37 107q41 53 96 53q119 0 119 -62q0 -55 -40 -111q-42 -60 -95 -60zM510 146q-153 -150 -302 -150
q-111 0 -174 97q-55 84 -55 200q0 198 187 347q176 140 379 140q113 0 113 -60q0 -36 -52 -70q85 -6 85 -113t-84 -251l31 -5q61 0 184 113l22 -81q-67 -91 -145 -128q-70 -33 -189 -39zM127 223q0 -90 90 -90q83 0 175 89q-34 61 -34 95q0 85 96 251q-152 -79 -215 -132
q-112 -96 -112 -213z" />
    <glyph glyph-name="otilde" unicode="&#xf5;" horiz-adv-x="824" 
d="M674 861q-54 0 -144 13q-106 15 -144 18q30 -15 42 -25q23 -17 25 -40l-14 -13q-79 38 -91 46q-53 35 -53 79q0 98 73 98q6 0 290 -31q-36 28 -81 83q8 20 20 20q51 0 104.5 -59.5t53.5 -111.5q0 -31 -25 -54t-56 -23zM510 146q-153 -150 -302 -150q-111 0 -174 97
q-55 84 -55 200q0 198 187 347q176 140 379 140q113 0 113 -60q0 -36 -52 -70q85 -6 85 -113t-84 -251l31 -5q61 0 184 113l22 -81q-67 -91 -145 -128q-70 -33 -189 -39zM127 223q0 -90 90 -90q83 0 175 89q-34 61 -34 95q0 85 96 251q-152 -79 -215 -132
q-112 -96 -112 -213z" />
    <glyph glyph-name="uacute" unicode="&#xfa;" horiz-adv-x="997" 
d="M908 922q-17 -9 -50 -9q-17 0 -51 3.5t-52 3.5q-63 0 -184 -35.5t-182 -35.5q-9 0 -16 17q19 77 117 118l169 48l102 36q70 24 101 24q52 0 52 -90q0 -62 -6 -80zM557 -44q-135 0 -135 133q0 85 47 171l-8 15l-158 -162q-112 -101 -189 -101q-68 0 -109 69
q-34 58 -34 131q0 183 122 345q131 175 309 175q66 0 66 -33q0 -55 -92 -137l-170 -147q-92 -89 -92 -159l5 -22l17 -20q108 24 284 173q39 33 283 263q144 135 184 134q43 -19 43 -106q0 -56 -73 -133l-138 -142q-77 -91 -84 -177l17 -34l34 -13q87 0 322 196l11 -80
q-317 -339 -462 -339z" />
    <glyph glyph-name="ugrave" unicode="&#xf9;" horiz-adv-x="997" 
d="M749 849q-134 36 -484 52q-40 1 -83 5q22 3 68 5l-21 8q-5 27 -5 72q0 97 49 97q37 0 104 -23l102 -37l171 -50q105 -41 116 -117zM557 -44q-135 0 -135 133q0 85 47 171l-8 15l-158 -162q-112 -101 -189 -101q-68 0 -109 69q-34 58 -34 131q0 183 122 345
q131 175 309 175q66 0 66 -33q0 -55 -92 -137l-170 -147q-92 -89 -92 -159l5 -22l17 -20q108 24 284 173q39 33 283 263q144 135 184 134q43 -19 43 -106q0 -56 -73 -133l-138 -142q-77 -91 -84 -177l17 -34l34 -13q87 0 322 196l11 -80q-317 -339 -462 -339z" />
    <glyph glyph-name="ucircumflex" unicode="&#xfb;" horiz-adv-x="997" 
d="M822 845q-16 9 -100 82q-65 57 -104 57q-67 0 -181 -56q-171 -85 -176 -87q-5 3 -13 25q15 75 199 157q168 74 260 74q40 0 118 -67.5t78 -104.5q0 -30 -81 -80zM557 -44q-135 0 -135 133q0 85 47 171l-8 15l-158 -162q-112 -101 -189 -101q-68 0 -109 69q-34 58 -34 131
q0 183 122 345q131 175 309 175q66 0 66 -33q0 -55 -92 -137l-170 -147q-92 -89 -92 -159l5 -22l17 -20q108 24 284 173q39 33 283 263q144 135 184 134q43 -19 43 -106q0 -56 -73 -133l-138 -142q-77 -91 -84 -177l17 -34l34 -13q87 0 322 196l11 -80q-317 -339 -462 -339z
" />
    <glyph glyph-name="udieresis" unicode="&#xfc;" horiz-adv-x="997" 
d="M830 930q-32 0 -72 20q-46 24 -46 53q0 59 39.5 109.5t95.5 50.5q116 0 116 -62q0 -55 -38 -110q-41 -61 -95 -61zM435 930q-32 0 -71 20q-46 24 -46 53q0 58 38 107q40 53 96 53q118 0 118 -62q0 -55 -39 -111q-43 -60 -96 -60zM557 -44q-135 0 -135 133q0 85 47 171
l-8 15l-158 -162q-112 -101 -189 -101q-68 0 -109 69q-34 58 -34 131q0 183 122 345q131 175 309 175q66 0 66 -33q0 -55 -92 -137l-170 -147q-92 -89 -92 -159l5 -22l17 -20q108 24 284 173q39 33 283 263q144 135 184 134q43 -19 43 -106q0 -56 -73 -133l-138 -142
q-77 -91 -84 -177l17 -34l34 -13q87 0 322 196l11 -80q-317 -339 -462 -339z" />
    <glyph glyph-name="degree" unicode="&#xb0;" horiz-adv-x="832" 
d="M416 805q-127 0 -217.5 91t-90.5 217q0 127 90.5 217.5t217.5 90.5q126 0 217 -91t91 -217t-91 -217t-217 -91zM414 1346q-95 0 -163 -68.5t-68 -164.5t68.5 -164.5t164.5 -68.5t164.5 69t68.5 164t-70 164t-165 69z" />
    <glyph glyph-name="cent" unicode="&#xa2;" 
d="M923 832l-11 9l32 59l-129 -10l-119 -273q133 24 232 61q57 21 53 21q30 0 30 -94q0 -121 -146 -185q-54 -23 -251 -67q-18 -93 -21 -241l-99 26q-47 23 -47 84q0 6 26 136q-250 0 -250 210q0 398 548 529l83 161q61 90 143 90q60 0 60 -23q0 -43 -54 -104
q-64 -72 -75 -99q94 0 133 -34q44 -37 44 -129q0 -51 -68 -89q-54 -30 -114 -38zM397 653q0 -72 111 -72q6 0 36 4l114 265q-83 -11 -164 -62q-97 -62 -97 -135z" />
    <glyph glyph-name="sterling" unicode="&#xa3;" horiz-adv-x="1248" 
d="M1192 899l40 -29q-3 -46 -130 -143.5t-176 -100.5l-40 61q0 103 77 235q36 63 144 207q80 108 85 146l-8 9q-61 -6 -318 -320l-265 -337q60 -5 109 -25q70 -28 70 -74l-48 -37l-209 42l-149 -167q177 0 437 -72q401 -112 429 -118l-136 -151q-88 -81 -178 -81
q-122 0 -428.5 66.5t-477.5 66.5q-1 0 -92 -42.5t-128 -42.5q-17 0 -36.5 12t-19.5 29q0 53 69 147q11 15 108 132l293 46l156 195q-140 12 -248 -3q51 105 197 105q24 0 65 -2l65 -4l241 327q196 260 339 406q194 199 297 199q58 0 93 -45q31 -42 31 -102q0 -87 -49 -188
q-29 -59 -105.5 -174.5t-103.5 -172.5z" />
    <glyph glyph-name="paragraph" unicode="&#xb6;" horiz-adv-x="1388" 
d="M1122 1469v-112h-71v-1704h-121v1704h-300v-1704h-120v1011q-152 24 -239.5 130t-87.5 261q0 199 133 310q124 104 327 104h479z" />
    <glyph glyph-name="germandbls" unicode="&#xdf;" horiz-adv-x="1159" 
d="M611 751q213 0 304 -31q163 -56 163 -225q0 -200 -226 -366q-210 -154 -417 -154q-133 0 -133 119q0 73 53 117q49 41 124 41l25 -17l-17 -37q362 52 362 293q0 81 -81 127q-67 37 -154 37q-10 0 -186 -12l-179 -456q-154 -366 -216 -366q-33 0 -54 32q-19 28 -19 62
q0 112 114 361l175 357q-70 21 -70 62q0 71 144 73q325 553 674 553q79 0 132 -42q57 -47 57 -124q0 -137 -229 -252zM891 1178q-107 0 -229 -138q-94 -107 -155 -235l280 105q197 85 197 178q0 37 -28 63.5t-65 26.5z" />
    <glyph glyph-name="registered" unicode="&#xae;" horiz-adv-x="1808" 
d="M911 -37q-318 0 -543 222.5t-237 541.5q23 33 196 339q120 211 229 308q152 135 355 135q315 0 541.5 -229t226.5 -543q0 -316 -226.5 -545t-541.5 -229zM911 1321q-235 0 -413 -174.5t-178 -409.5t178 -411t413 -176q230 0 405.5 178t175.5 409t-174.5 407.5
t-406.5 176.5zM1058 703l171 -324h-203l-154 324h-108v-324h-175v755h408q127 0 187 -45q69 -53 69 -176q0 -210 -195 -210zM943 1007h-179v-183h191q127 0 127 93q0 90 -139 90z" />
    <glyph glyph-name="copyright" unicode="&#xa9;" horiz-adv-x="1808" 
d="M907 -37q-315 0 -543 224.5t-233 539.5q29 41 195 338q120 212 227 309q151 135 354 135q314 0 543 -228.5t229 -541.5q0 -323 -224.5 -549.5t-547.5 -226.5zM918 1321q-241 0 -419.5 -172t-178.5 -412q0 -238 175 -412.5t412 -174.5q232 0 408.5 177t176.5 410
q0 227 -174 405.5t-400 178.5zM907 306q-189 0 -298 123q-105 117 -105 309l-5 6q0 193 107 314q111 128 301 128q151 0 249 -77q101 -80 123 -227h-193q-3 56 -65 95q-54 34 -114 34q-200 0 -200 -274q0 -107 48 -177q55 -81 156 -81q63 0 114 33q57 38 61 98h193
q-41 -304 -372 -304z" />
    <glyph glyph-name="trademark" unicode="&#x2122;" horiz-adv-x="1523" 
d="M1398 751v502l-169 -502h-79l-170 501l-4 -501h-175v672h266l119 -343l122 343h265v-672h-175zM520 1276v-525h-179v525h-191v147h566v-147h-196z" />
    <glyph glyph-name="acute" unicode="&#xb4;" horiz-adv-x="728" 
d="M770 909q-16 -9 -49 -9q-18 0 -52 3.5t-51 3.5q-64 0 -185 -35.5t-182 -35.5q-8 0 -16 18q19 77 117 117l169 49l103 36q69 24 100 24q52 0 52 -90q0 -63 -6 -81z" />
    <glyph glyph-name="dieresis" unicode="&#xa8;" horiz-adv-x="930" 
d="M797 930q-32 0 -72 20q-47 24 -47 53q0 59 39.5 109.5t96.5 50.5q116 0 116 -62q0 -55 -38 -110q-42 -61 -95 -61zM402 930q-32 0 -72 20q-45 24 -45 53q0 58 38 107q40 53 95 53q119 0 119 -62q0 -55 -39 -111q-43 -60 -96 -60z" />
    <glyph glyph-name="AE" unicode="&#xc6;" horiz-adv-x="2665" 
d="M2350 1032l-13 10q11 58 147 161l-64 2q-162 5 -410 -66q-304 -88 -304 -209q0 -88 411 -88q77 0 179 3.5t110 3.5q97 0 97 -52q0 -97 -213 -160l-440 -126q-270 -104 -371 -289q2 -42 107 -65q73 -16 141 -16q373 0 845 303q0 -293 -305 -444q-239 -119 -573 -119
q-188 0 -280 41q-129 58 -163 217q-177 -156 -300 -156q-41 0 -69 38q-25 34 -25 77q0 74 57 188l96 178l-458 -17l-292 -303q-262 -258 -337 -258l-69 37q1 85 138 203q123 106 219 135l169 186l-104 -8l-109 40q25 107 159 196q127 84 242 84l50 -11q-5 -16 -71 -33
l-83 -20l40 -25l128 8q425 363 502 424q397 317 508 317q59 0 59 -74q0 -27 -8 -65q194 114 431 159q189 37 460 37q116 0 147 -37q28 -34 28 -155l-34 -84q-56 -21 -189 -87q-119 -59 -186 -81zM1484 911l-110 -184q53 8 64 8q42 0 68 -12q-60 -64 -144 -228l-112 -13
l-133 -255q22 -40 42 -40q18 0 66 28q45 26 58 42q27 44 90 129q117 130 324 213q99 39 375 114l-323 42q-202 44 -265 156zM824 698l337 22l305 514z" />
    <glyph glyph-name="Oslash" unicode="&#xd8;" horiz-adv-x="1330" 
d="M1398 1022l4 -88q11 -213 -138 -439q-140 -214 -363 -354q-230 -145 -445 -145q-111 0 -188 51q-29 -20 -115 -135q-76 -99 -106 -99q-31 0 -59 27t-28 58q0 44 79 128l111 119q-77 161 -77 282q0 189 193 435q179 229 431 394q262 171 450 171q61 0 125 -53
q68 -56 68 -115q0 -17 -94 -66q-117 -61 -117 -62q61 20 107 20q61 0 106 -30l132 95q95 64 139 64q60 0 100 -72zM1130 1053q-138 0 -272 -92q-85 -58 -196 -178q-96 -104 -121 -113q-21 16 -26 62q-228 -212 -234 -477l920 773q-27 25 -71 25zM351 141q9 1 24.5 -3.5
t20.5 -4.5q224 0 501 269q266 258 312 487z" />
    <glyph glyph-name="plusminus" unicode="&#xb1;" horiz-adv-x="1142" 
d="M639 551v-253h-133v253h-410v134h410v253h133v-253h410v-134h-410zM96 44v133h953v-133h-953z" />
    <glyph glyph-name="yen" unicode="&#xa5;" horiz-adv-x="1688" 
d="M1428 698q237 18 247 18q175 0 175 -54q0 -46 -225 -65l-279 -12l-57 -94q205 10 224 10q177 0 177 -54q0 -44 -209 -63l-260 -14l-140 -268q-109 -175 -216 -175q-27 0 -68 22q-46 24 -46 48q0 43 78 172q59 97 111 166l-259 -57q37 92 137 131q37 14 191 43l69 89
q-84 -1 -243 -56q57 150 335 181q126 180 356 350l-5 7l-495 -286q-400 -217 -558 -217q-139 0 -139 69q0 63 193 219q22 18 362 271q198 147 204 186l-22 11q-105 0 -455 -146q-392 -163 -505 -187l-21 7q10 135 273 269q214 108 531 189q281 71 420 71q129 0 129 -60
q0 -50 -325 -308l-401 -312l31 -44q107 3 595.5 293t526.5 290q39 0 79 -19q49 -24 47 -59q-86 -99 -280.5 -279.5t-282.5 -282.5z" />
    <glyph glyph-name="mu" unicode="&#xb5;" horiz-adv-x="997" 
d="M653 -44q-129 0 -129 136q0 50 42 160l-6 25q-109 -120 -158 -163q-115 -102 -190 -102q-49 0 -124 93q-204 -417 -365 -417q-34 0 -64 23q-34 25 -34 58q0 53 92 127.5t255 303.5q207 291 265 359q148 173 250 173q81 0 81 -33q0 -59 -91 -139l-170 -146
q-92 -93 -95 -181l23 -15q103 12 280 159q67 56 287 267q148 140 183 140q47 0 47 -110q0 -38 -138 -187q-143 -155 -160 -260l17 -33l37 -15q80 0 322 196l7 -84q-328 -335 -464 -335z" />
    <glyph glyph-name="ordfeminine" unicode="&#xaa;" horiz-adv-x="801" 
d="M580 926q-51 0 -51 62q0 56 49 144l-15 7l-125 -103q-74 -58 -137 -85q-24 10 -38 24l-18 17q-11 11 -11 9q-47 70 -47 108q0 107 202 216q182 98 302 98q26 0 50 -18.5t27 -44.5q-16 -14 -54 -27q45 -11 45 -45q0 -25 -53 -90q-57 -69 -63 -105l10 -21q23 -11 38 -11
q46 0 180 91l7 -42q-56 -55 -141 -113q-105 -71 -157 -71zM187 776v60h691v-60h-691zM640 1305q-149 -39 -213 -72q-114 -59 -146 -159q5 -19 23 -29q73 9 345 251z" />
    <glyph glyph-name="ordmasculine" unicode="&#xba;" horiz-adv-x="699" 
d="M560 1040q-102 -102 -202 -102q-69 0 -110 62q-36 54 -36 126q0 125 127 213q115 80 246 80q68 0 68 -42q0 -14 -29 -35q46 -7 46 -67q0 -73 -50 -152l23 -6q33 0 122 66l11 -44q-85 -96 -216 -99zM187 776v60h589v-60h-589zM308 1082q0 -46 46 -46q66 0 128 47
q-22 31 -22 60q0 22 66 159q-111 -60 -121 -68q-62 -43 -85 -106q-12 -35 -12 -46z" />
    <glyph glyph-name="ae" unicode="&#xe6;" horiz-adv-x="1309" 
d="M780 -25q-232 0 -232 290q0 22 2 46l-211 -173q-168 -130 -211 -130q-85 0 -164 252l-1 -13q8 196 292 374q260 163 469 163q87 0 123 -74q134 74 246 74q160 0 160 -97q0 -132 -189 -248q-125 -76 -308 -134l-9 -45q0 -57 49 -88q42 -26 103 -26q134 0 420 238l14 -75
q-291 -334 -553 -334zM1075 665l-18 1q-85 5 -178 -94q-69 -75 -119 -178q92 33 191 102q127 88 127 156zM98 216q0 -58 44 -58q70 0 279 180q186 161 251 249q-192 -43 -348 -122q-226 -115 -226 -249z" />
    <glyph glyph-name="oslash" unicode="&#xf8;" horiz-adv-x="824" 
d="M510 146q-151 -151 -313 -154l-53 -111q-41 -81 -63 -81l-42 24l-18 49v-3l1 2l2 16l11 46q3 14 52 96q-104 84 -104 263q0 207 201 355q184 136 399 136l92 116l28 9q23 0 61 -8q52 -12 60 -13l-205 -237q72 -16 72 -110q0 -110 -84 -255l27 -5q78 0 192 112l18 -80
q-66 -90 -145 -127q-71 -34 -189 -40zM127 223q0 -94 89 -94q83 0 172 93q-30 49 -30 91q0 77 100 259q-161 -86 -218 -133q-113 -96 -113 -216z" />
    <glyph glyph-name="questiondown" unicode="&#xbf;" horiz-adv-x="972" 
d="M635 537q-30 0 -68 77q-39 81 -41 81q-2 -5 -2 -14q0 -10 3 -22l30 138q25 81 94 81q108 0 108 -119q0 -68 -29 -136q-37 -86 -95 -86zM239 -553q-63 0 -141 57q-83 62 -85 62v-20q-17 118 -17 134q0 133 120 307q61 89 224 270q120 134 120 169q0 13 -6.5 36.5
t-6.5 33.5q0 37 36 37q50 0 86 -47q32 -43 32 -95q0 -112 -133 -244l-249 -213q-134 -118 -134 -194q0 -90 163 -90q128 0 320 83q-100 16 -100 59q0 31 48 33q9 -5 124 -12q84 -6 84 -65q0 -164 -170 -243q-128 -58 -315 -58z" />
    <glyph glyph-name="exclamdown" unicode="&#xa1;" horiz-adv-x="818" 
d="M593 545q-13 4 -28 11q-93 40 -93 122q0 69 31 133q38 80 98 80q46 0 78.5 -32.5t32.5 -78.5q0 -61 -31 -139q-37 -96 -88 -96zM119 -553q-23 0 -80 19q-64 22 -64 39q0 27 209 429l235 449l-13 36q0 85 66 85q42 0 79.5 -36t37.5 -77q0 -91 -374 -880q-31 -64 -96 -64z
" />
    <glyph glyph-name="logicalnot" unicode="&#xac;" horiz-adv-x="1484" 
d="M1305 4v485h-1270v106h1376v-591h-106z" />
    <glyph glyph-name="florin" unicode="&#x192;" horiz-adv-x="1353" 
d="M1333 904l49 -43q-3 -43 -104.5 -141t-144.5 -98q-63 0 -63 129q0 135 80.5 311.5t81.5 190.5l-21 23q-73 -6 -400 -653q204 -20 204 -99l-7 -24l-24 -9q-42 0 -113 16l-114 26q-194 -354 -292 -507q-244 -384 -355 -384q-59 0 -105 57q-42 53 -42 114q0 97 41 234
q70 228 70 229l-49 29q4 38 101 128.5t134 90.5q65 0 65 -127q0 -128 -62 -239q-86 -154 -101 -206q0 -18 20 -21q74 23 226 280l192 346q-133 7 -249 -11q31 112 159 112q26 0 70 -5q55 -5 70 -6l128 268q137 273 254 437q162 229 272 229q57 0 95 -84q30 -68 30 -132
q0 -101 -32 -233q0 -1 -64 -228z" />
    <glyph glyph-name="guillemotleft" unicode="&#xab;" horiz-adv-x="797" 
d="M716 239q-81 0 -183 108t-102 189q0 2 102 166q105 170 119 206q68 -115 68 -153q0 -28 -72 -124t-72 -132q0 -39 104 -79t104 -96q0 -85 -68 -85zM362 239q-84 0 -181 108q-94 104 -100 189q24 44 117 183q75 112 105 189q67 -115 67 -153q0 -28 -71.5 -124t-71.5 -132
q0 -40 102 -79.5t102 -95.5q0 -85 -69 -85z" />
    <glyph glyph-name="guillemotright" unicode="&#xbb;" horiz-adv-x="797" 
d="M625 241q-67 121 -67 153q0 35 68.5 122.5t68.5 150.5q0 24 -102 64.5t-102 92.5q0 83 67 83q80 0 183.5 -106t103.5 -186q-99 -157 -220 -374zM273 241q-69 133 -69 153q0 27 70.5 114.5t70.5 134.5q0 48 -102 87.5t-102 93.5q0 83 67 83q81 0 182 -106t101 -187
q0 -13 -99 -174q-109 -177 -119 -199z" />
    <glyph glyph-name="ellipsis" unicode="&#x2026;" horiz-adv-x="2081" 
d="M1710 -4q-46 0 -82 17q-47 23 -47 64q0 75 56 145q59 76 132 76q116 0 116 -63q0 -80 -47 -154q-53 -85 -128 -85zM1015 -4q-124 0 -124 81q0 76 52 146q57 75 131 75q116 0 116 -63q0 -80 -47 -154q-53 -85 -128 -85zM320 -4q-124 0 -124 81q0 76 53 146q56 75 130 75
q116 0 116 -67q0 -80 -47 -153q-52 -82 -128 -82z" />
    <glyph glyph-name="nonbreakingspace" unicode="&#xa0;" horiz-adv-x="583" 
 />
    <glyph glyph-name="Agrave" unicode="&#xc0;" horiz-adv-x="1621" 
d="M1692 1519q-134 36 -485 52q-39 1 -83 5q23 3 68 5l-21 8q-5 27 -5 72q0 97 49 97q38 0 104 -23l103 -37l171 -50q105 -41 115 -117zM1378 728l138 7l54 -13q-96 -133 -145 -231l-169 -8l-135 -264l42 -36q45 10 98 47l86 68l29 -50q-265 -265 -425 -265q-41 0 -69 38
q-25 34 -25 77q0 73 57 188l96 178l-458 -17l-287 -299q-265 -262 -342 -262q-69 0 -69 37q0 84 138 203q124 107 219 135l169 186q-17 0 -51.5 -4t-52.5 -4q-92 0 -109 40q25 107 159 196q127 84 242 84l50 -11l-16 -16q-132 2 -138 -37l40 -25q42 3 128 8q864 741 998 741
q72 0 72 -89q0 -58 -139 -296zM820 698l341 22l310 514z" />
    <glyph glyph-name="Atilde" unicode="&#xc3;" horiz-adv-x="1621" 
d="M1700 1509q-54 0 -145 12q-105 16 -144 18q31 -15 43 -25q23 -17 25 -40l-14 -13q-79 38 -91 46q-53 35 -53 79q0 98 73 98q6 0 289 -31q-35 28 -80 83q8 20 20 20q51 0 104.5 -59.5t53.5 -111.5q0 -31 -25 -53.5t-56 -22.5zM1378 728l138 7l54 -13q-96 -133 -145 -231
l-169 -8l-135 -264l42 -36q45 10 98 47l86 68l29 -50q-265 -265 -425 -265q-41 0 -69 38q-25 34 -25 77q0 73 57 188l96 178l-458 -17l-287 -299q-265 -262 -342 -262q-69 0 -69 37q0 84 138 203q124 107 219 135l169 186q-17 0 -51.5 -4t-52.5 -4q-92 0 -109 40
q25 107 159 196q127 84 242 84l50 -11l-16 -16q-132 2 -138 -37l40 -25q42 3 128 8q864 741 998 741q72 0 72 -89q0 -58 -139 -296zM820 698l341 22l310 514z" />
    <glyph glyph-name="Otilde" unicode="&#xd5;" horiz-adv-x="1330" 
d="M1211 1527q-54 0 -145 13q-105 15 -144 18q31 -15 43 -25q23 -18 25 -40l-14 -13q-79 38 -91 46q-53 35 -53 79q0 98 73 98q6 0 289 -31q-35 28 -80 82q8 21 20 21q51 0 104.5 -59.5t53.5 -111.5q0 -31 -25 -54t-56 -23zM460 -4q-185 0 -288 125q-95 117 -95 306
q0 195 192 441q177 228 430 391q261 168 452 168q61 0 122 -53q63 -56 65 -115l-209 -124q68 20 109 20q160 0 160 -208q0 -210 -147 -438q-141 -218 -356 -362q-225 -151 -435 -151zM1122 1049q-134 0 -266 -91q-84 -57 -194 -174q-97 -104 -121 -114q-21 16 -26 62
q-95 -85 -162 -207q-76 -136 -76 -248q0 -136 89 -136q160 0 368 136q200 130 340 315q149 198 149 359q0 98 -101 98z" />
    <glyph glyph-name="OE" unicode="&#x152;" horiz-adv-x="2414" 
d="M2124 1040l-14 9q15 57 157 157l-63 3q-162 8 -418 -67q-307 -91 -307 -217q0 -78 500 -78q57 0 129.5 1t78.5 1q94 0 94 -52q0 -104 -208 -159l-437 -116q-271 -103 -383 -309q7 -67 226 -67q447 0 854 298l8 -91q19 -223 -324 -362q-271 -110 -542 -110
q-451 0 -451 269q0 94 57 151l-6 6q-109 -120 -277 -198q-172 -80 -330 -80q-170 0 -273 138q-93 125 -93 301q0 194 192 437q177 225 429 387q260 167 448 167q61 0 125 -51q68 -53 69 -112l-205 -125q89 29 186 -13q160 317 1003 317q125 0 156 -32t31 -159l-12 -59
q-21 -18 -193 -97t-207 -88zM1391 799q-18 -86 -74 -185q-17 -29 -109 -170q155 108 313 172q119 48 340 106l-241 14q-144 13 -229 63zM1168 1082q-158 0 -294 -89q-86 -56 -190 -172q-92 -103 -120 -113l-24 59q-95 -82 -164 -206q-76 -136 -76 -249q0 -50 20 -89
q25 -48 71 -48q163 0 371 137q199 132 338 320q148 201 148 365q0 85 -80 85z" />
    <glyph glyph-name="oe" unicode="&#x153;" horiz-adv-x="1178" 
d="M643 -29q-146 0 -204 145q-27 -53 -101 -103q-77 -50 -134 -50q-119 0 -177 133q-44 100 -44 237q0 175 194 309q177 122 360 122q108 0 126 -93q163 113 321 113q138 0 138 -97q0 -223 -500 -382l-4 -45q0 -46 30 -80t76 -34q115 0 248 80q50 31 215 158l15 -75
q-301 -338 -559 -338zM922 666q-78 0 -171 -97q-76 -81 -115 -170q97 28 190 97q113 82 121 165q-21 5 -25 5zM499 573q-149 -40 -248 -115q-128 -98 -128 -227q0 -94 68 -146q148 40 193 103q20 28 40 137q20 105 84 186z" />
    <glyph glyph-name="endash" unicode="&#x2013;" horiz-adv-x="1040" 
d="M4 487v175h1032v-175h-1032z" />
    <glyph glyph-name="emdash" unicode="&#x2014;" horiz-adv-x="2081" 
d="M8 487l-4 175h2069l4 -175h-2069z" />
    <glyph glyph-name="quotedblleft" unicode="&#x201c;" horiz-adv-x="980" 
d="M888 1289q84 -18 84 -74q0 -70 -71 -132.5t-142 -62.5q-77 0 -77 62q0 92 103.5 214.5t194.5 132.5q-57 -77 -92 -140zM535 1289q83 -18 83 -74q0 -70 -70.5 -132.5t-141.5 -62.5q-77 0 -77 62q0 91 103 214t193 133q-57 -74 -90 -140z" />
    <glyph glyph-name="quotedblright" unicode="&#x201d;" horiz-adv-x="980" 
d="M618 1016q51 63 92 142q-84 13 -84 70q0 70 67.5 132.5t138.5 62.5q81 0 81 -58q0 -94 -100 -217q-103 -127 -195 -132zM265 1016q50 66 91 142q-83 15 -83 70q0 71 67.5 133t138.5 62q81 0 81 -58q0 -96 -99 -217q-102 -123 -196 -132z" />
    <glyph glyph-name="quoteleft" unicode="&#x2018;" horiz-adv-x="626" 
d="M433 1289q83 -15 83 -74q0 -70 -70.5 -132.5t-141.5 -62.5q-77 0 -77 62q0 89 105 213.5t192 133.5q-52 -71 -91 -140z" />
    <glyph glyph-name="quoteright" unicode="&#x2019;" horiz-adv-x="626" 
d="M391 1011l-17 3q54 73 92 139q-87 24 -87 71q0 73 66.5 136t139.5 63q85 0 85 -54q0 -85 -96 -218q-102 -140 -183 -140z" />
    <glyph glyph-name="divide" unicode="&#xf7;" horiz-adv-x="1142" 
d="M572 655q-49 0 -81.5 33t-32.5 82q0 46 34 80t80 34q47 0 80 -33.5t33 -80.5q0 -46 -33.5 -80.5t-79.5 -34.5zM94 424v134h955v-134h-955zM572 96q-47 0 -80.5 33.5t-33.5 80.5q0 46 34 80.5t80 34.5q49 0 81 -33t32 -82q0 -46 -33.5 -80t-79.5 -34z" />
    <glyph glyph-name="ydieresis" unicode="&#xff;" horiz-adv-x="918" 
d="M793 930q-32 0 -72 20q-47 24 -47 53q0 59 39.5 109.5t96.5 50.5q116 0 116 -62q0 -55 -38 -110q-42 -61 -95 -61zM398 930q-32 0 -72 20q-45 24 -45 53q0 58 37 107q41 53 96 53q119 0 119 -62q0 -55 -40 -111q-42 -60 -95 -60zM231 -443q-60 30 -60 118q0 59 147 307
l196 320q-336 -264 -376 -264q-56 0 -106 92q-44 82 -44 143q0 119 139 311q147 200 260 200q32 0 59.5 -29t27.5 -60q0 -68 -161 -212q-167 -149 -180 -246l16 -10q84 1 241 137q48 42 261 252q137 135 174 135q49 0 49 -98q0 -78 -166 -320l-231 -317l10 -9l462 408
l18 -68l-385 -426q-330 -361 -351 -364z" />
    <glyph glyph-name="Ydieresis" unicode="&#x178;" horiz-adv-x="1544" 
d="M988 29l8 -17q75 13 228 113q139 89 235 89l29 -15q-7 -28 -395.5 -361t-410.5 -333q-38 0 -63.5 27t-25.5 66q0 136 283 563q108 162 397 556l-431 -383q-344 -292 -428 -292q-62 0 -103 51q-38 47 -38 111q0 94 315 476q324 391 334 451l-18 11q-84 -2 -371 -174
q-305 -183 -402 -204l-29 37q31 194 115 280q91 93 404.5 225t443.5 132q142 0 142 -100q0 -96 -159 -304l-296 -360q-162 -197 -167 -265l37 -26q95 13 503 388q404 371 419 371q35 0 68 -51q30 -47 30 -84q0 -35 -307 -443q-317 -423 -347 -535zM1815 1540q-32 0 -73 20
q-46 23 -46 53q0 58 38 107q41 53 97 53q117 0 117 -63q0 -55 -38 -110q-42 -60 -95 -60zM1420 1540q-33 0 -72 20q-45 23 -45 53q0 58 37 107q40 53 96 53q118 0 118 -63q0 -55 -39 -110q-43 -60 -95 -60z" />
    <glyph glyph-name="guilsinglleft" unicode="&#x2039;" horiz-adv-x="443" 
d="M362 239q-84 0 -181 108q-94 104 -100 189q24 44 117 183q75 112 105 189q67 -115 67 -153q0 -28 -71.5 -124t-71.5 -132q0 -40 102 -79.5t102 -95.5q0 -85 -69 -85z" />
    <glyph glyph-name="guilsinglright" unicode="&#x203a;" horiz-adv-x="443" 
d="M276 241q-64 116 -64 153q0 35 69 122.5t69 150.5q0 22 -119 77l-46 21l-17 7l3 -2h1q-26 31 -26 54q0 83 66 83q81 0 184 -106t103 -187q0 -26 -99 -175q-110 -164 -124 -198z" />
    <glyph glyph-name="quotedblbase" unicode="&#x201e;" horiz-adv-x="980" 
d="M464 -122q62 82 92 142q-88 14 -88 70q0 72 70 135q67 60 140 60q81 0 81 -58q0 -95 -100 -216q-101 -124 -195 -133zM111 -122q61 82 91 142q-88 17 -88 70q0 72 70 135q67 60 141 60q81 0 81 -58q0 -94 -101.5 -216.5t-193.5 -132.5z" />
    <glyph glyph-name="Acircumflex" unicode="&#xc2;" horiz-adv-x="1621" 
d="M1858 1472q-16 8 -100 82q-65 57 -104 57q-67 0 -180 -57q-172 -85 -177 -86q-5 3 -13 24q15 75 200 157q167 74 260 74q39 0 117 -67t78 -104q0 -31 -81 -80zM1378 728l138 7l54 -13q-96 -133 -145 -231l-169 -8l-135 -264l42 -36q45 10 98 47l86 68l29 -50
q-265 -265 -425 -265q-41 0 -69 38q-25 34 -25 77q0 73 57 188l96 178l-458 -17l-287 -299q-265 -262 -342 -262q-69 0 -69 37q0 84 138 203q124 107 219 135l169 186q-17 0 -51.5 -4t-52.5 -4q-92 0 -109 40q25 107 159 196q127 84 242 84l50 -11l-16 -16q-132 2 -138 -37
l40 -25q42 3 128 8q864 741 998 741q72 0 72 -89q0 -58 -139 -296zM820 698l341 22l310 514z" />
    <glyph glyph-name="Ecircumflex" unicode="&#xca;" horiz-adv-x="1459" 
d="M1342 1472q-16 8 -100 82q-65 57 -104 57q-67 0 -180 -57q-172 -85 -177 -86q-5 3 -13 24q15 75 200 157q167 74 260 74q39 0 117 -67t78 -104q0 -31 -81 -80zM1146 984l-16 13q16 60 163 162l-69 2q-164 5 -415 -69q-305 -90 -305 -214q0 -83 422 -83q76 0 174 3t103 3
q97 0 97 -58q0 -42 -40.5 -90.5t-82.5 -59.5l-316 -74q-257 -66 -402 -139q-199 -100 -199 -217q0 -36 108 -56q75 -13 140 -13q442 0 846 296q11 -55 11 -86q0 -241 -340 -372q-257 -98 -546 -98q-433 0 -433 251q0 222 328 398q221 119 527 191q-624 0 -624 256
q0 261 412 399q298 100 624 100q151 0 183 -16q56 -31 56 -165q0 -77 -162 -165q-123 -66 -244 -99z" />
    <glyph glyph-name="Aacute" unicode="&#xc1;" horiz-adv-x="1621" 
d="M1848 1552q-16 -9 -50 -9q-17 0 -51 3.5t-51 3.5q-64 0 -185 -35.5t-182 -35.5q-8 0 -16 17q19 78 117 118l169 49l103 36q69 24 100 24q52 0 52 -90q0 -63 -6 -81zM1378 728l138 7l54 -13q-96 -133 -145 -231l-169 -8l-135 -264l42 -36q45 10 98 47l86 68l29 -50
q-265 -265 -425 -265q-41 0 -69 38q-25 34 -25 77q0 73 57 188l96 178l-458 -17l-287 -299q-265 -262 -342 -262q-69 0 -69 37q0 84 138 203q124 107 219 135l169 186q-17 0 -51.5 -4t-52.5 -4q-92 0 -109 40q25 107 159 196q127 84 242 84l50 -11l-16 -16q-132 2 -138 -37
l40 -25q42 3 128 8q864 741 998 741q72 0 72 -89q0 -58 -139 -296zM820 698l341 22l310 514z" />
    <glyph glyph-name="Edieresis" unicode="&#xcb;" horiz-adv-x="1459" 
d="M1355 1544q-32 0 -72 20q-47 24 -47 53q0 59 39.5 109.5t95.5 50.5q117 0 117 -63q0 -55 -38 -110q-42 -60 -95 -60zM960 1544q-33 0 -72 20q-45 23 -45 53q0 58 37 107q41 53 96 53q118 0 118 -63q0 -55 -39 -110q-42 -60 -95 -60zM1146 984l-16 13q16 60 163 162l-69 2
q-164 5 -415 -69q-305 -90 -305 -214q0 -83 422 -83q76 0 174 3t103 3q97 0 97 -58q0 -42 -40.5 -90.5t-82.5 -59.5l-316 -74q-257 -66 -402 -139q-199 -100 -199 -217q0 -36 108 -56q75 -13 140 -13q442 0 846 296q11 -55 11 -86q0 -241 -340 -372q-257 -98 -546 -98
q-433 0 -433 251q0 222 328 398q221 119 527 191q-624 0 -624 256q0 261 412 399q298 100 624 100q151 0 183 -16q56 -31 56 -165q0 -77 -162 -165q-123 -66 -244 -99z" />
    <glyph glyph-name="Egrave" unicode="&#xc8;" horiz-adv-x="1459" 
d="M1271 1500q-134 36 -484 52q-39 1 -83 5q22 4 68 6l-21 8q-5 27 -5 72q0 97 49 97q38 0 104 -23l103 -38l171 -50q105 -41 115 -116zM1146 984l-16 13q16 60 163 162l-69 2q-164 5 -415 -69q-305 -90 -305 -214q0 -83 422 -83q76 0 174 3t103 3q97 0 97 -58
q0 -42 -40.5 -90.5t-82.5 -59.5l-316 -74q-257 -66 -402 -139q-199 -100 -199 -217q0 -36 108 -56q75 -13 140 -13q442 0 846 296q11 -55 11 -86q0 -241 -340 -372q-257 -98 -546 -98q-433 0 -433 251q0 222 328 398q221 119 527 191q-624 0 -624 256q0 261 412 399
q298 100 624 100q151 0 183 -16q56 -31 56 -165q0 -77 -162 -165q-123 -66 -244 -99z" />
    <glyph glyph-name="Iacute" unicode="&#xcd;" horiz-adv-x="1024" 
d="M1116 1552q-17 -9 -50 -9q-17 0 -51 3.5t-51 3.5q-64 0 -185 -35.5t-182 -35.5q-9 0 -16 17q19 78 117 118l169 49l102 36q70 24 101 24q52 0 52 -90q0 -63 -6 -81zM657 175l9 -42q0 -59 -56.5 -124t-113.5 -65q-28 0 -61 31t-33 58q0 30 152 261q203 308 282 447
q152 267 152 385q0 85 -54 85q-108 0 -312 -169q-196 -162 -242 -272q80 19 120 19l29 -13q-16 -38 -105.5 -104t-126.5 -66q-54 0 -118 47q-69 51 -69 103q0 143 157 312q141 151 344.5 260.5t343.5 109.5q96 0 152 -63t56 -160q0 -181 -190 -540q-155 -292 -316 -500z" />
    <glyph glyph-name="Icircumflex" unicode="&#xce;" horiz-adv-x="1024" 
d="M1123 1472q-15 8 -99 82q-65 57 -105 57q-66 0 -180 -57q-171 -85 -176 -86q-6 3 -14 24q16 75 200 157q167 74 260 74q39 0 117.5 -67t78.5 -104q0 -31 -82 -80zM657 175l9 -42q0 -59 -56.5 -124t-113.5 -65q-28 0 -61 31t-33 58q0 30 152 261q203 308 282 447
q152 267 152 385q0 85 -54 85q-108 0 -312 -169q-196 -162 -242 -272q80 19 120 19l29 -13q-16 -38 -105.5 -104t-126.5 -66q-54 0 -118 47q-69 51 -69 103q0 143 157 312q141 151 344.5 260.5t343.5 109.5q96 0 152 -63t56 -160q0 -181 -190 -540q-155 -292 -316 -500z" />
    <glyph glyph-name="Idieresis" unicode="&#xcf;" horiz-adv-x="1024" 
d="M1099 1540q-32 0 -72 20q-47 23 -47 53q0 58 38 107q41 53 97 53q117 0 117 -63q0 -55 -38 -110q-42 -60 -95 -60zM704 1540q-33 0 -72 20q-45 23 -45 53q0 58 37 107q41 53 96 53q119 0 119 -63q0 -55 -40 -110q-42 -60 -95 -60zM657 175l9 -42q0 -59 -56.5 -124
t-113.5 -65q-28 0 -61 31t-33 58q0 30 152 261q203 308 282 447q152 267 152 385q0 85 -54 85q-108 0 -312 -169q-196 -162 -242 -272q80 19 120 19l29 -13q-16 -38 -105.5 -104t-126.5 -66q-54 0 -118 47q-69 51 -69 103q0 143 157 312q141 151 344.5 260.5t343.5 109.5
q96 0 152 -63t56 -160q0 -181 -190 -540q-155 -292 -316 -500z" />
    <glyph glyph-name="Igrave" unicode="&#xcc;" horiz-adv-x="1024" 
d="M1024 1515q-134 36 -485 52q-39 1 -82 5q22 3 67 5l-21 8q-5 27 -5 72q0 97 50 97q37 0 103 -23l103 -37l171 -50q105 -42 115 -117zM657 175l9 -42q0 -59 -56.5 -124t-113.5 -65q-28 0 -61 31t-33 58q0 30 152 261q203 308 282 447q152 267 152 385q0 85 -54 85
q-108 0 -312 -169q-196 -162 -242 -272q80 19 120 19l29 -13q-16 -38 -105.5 -104t-126.5 -66q-54 0 -118 47q-69 51 -69 103q0 143 157 312q141 151 344.5 260.5t343.5 109.5q96 0 152 -63t56 -160q0 -181 -190 -540q-155 -292 -316 -500z" />
    <glyph glyph-name="Oacute" unicode="&#xd3;" horiz-adv-x="1330" 
d="M1388 1548q-16 -9 -49 -9q-18 0 -52 3.5t-51 3.5q-64 0 -185 -35.5t-182 -35.5q-8 0 -16 17q19 78 117 118l169 49l103 36q69 24 100 24q52 0 52 -90q0 -63 -6 -81zM460 -4q-185 0 -288 125q-95 117 -95 306q0 195 192 441q177 228 430 391q261 168 452 168q61 0 122 -53
q63 -56 65 -115l-209 -124q68 20 109 20q160 0 160 -208q0 -210 -147 -438q-141 -218 -356 -362q-225 -151 -435 -151zM1122 1049q-134 0 -266 -91q-84 -57 -194 -174q-97 -104 -121 -114q-21 16 -26 62q-95 -85 -162 -207q-76 -136 -76 -248q0 -136 89 -136q160 0 368 136
q200 130 340 315q149 198 149 359q0 98 -101 98z" />
    <glyph glyph-name="Ocircumflex" unicode="&#xd4;" horiz-adv-x="1330" 
d="M1358 1472q-15 8 -99 82q-65 57 -104 57q-67 0 -181 -57q-171 -85 -176 -86q-5 3 -13 24q15 75 199 157q168 74 260 74q39 0 117.5 -67t78.5 -104q0 -31 -82 -80zM460 -4q-185 0 -288 125q-95 117 -95 306q0 195 192 441q177 228 430 391q261 168 452 168q61 0 122 -53
q63 -56 65 -115l-209 -124q68 20 109 20q160 0 160 -208q0 -210 -147 -438q-141 -218 -356 -362q-225 -151 -435 -151zM1122 1049q-134 0 -266 -91q-84 -57 -194 -174q-97 -104 -121 -114q-21 16 -26 62q-95 -85 -162 -207q-76 -136 -76 -248q0 -136 89 -136q160 0 368 136
q200 130 340 315q149 198 149 359q0 98 -101 98z" />
    <glyph glyph-name="Ograve" unicode="&#xd2;" horiz-adv-x="1330" 
d="M1265 1523q-134 36 -484 52q-39 1 -83 5q22 4 68 6l-21 7q-5 28 -5 73q0 96 49 96q37 0 104 -22l103 -38l171 -50q104 -41 115 -116zM460 -4q-185 0 -288 125q-95 117 -95 306q0 195 192 441q177 228 430 391q261 168 452 168q61 0 122 -53q63 -56 65 -115l-209 -124
q68 20 109 20q160 0 160 -208q0 -210 -147 -438q-141 -218 -356 -362q-225 -151 -435 -151zM1122 1049q-134 0 -266 -91q-84 -57 -194 -174q-97 -104 -121 -114q-21 16 -26 62q-95 -85 -162 -207q-76 -136 -76 -248q0 -136 89 -136q160 0 368 136q200 130 340 315
q149 198 149 359q0 98 -101 98z" />
    <glyph glyph-name="Uacute" unicode="&#xda;" horiz-adv-x="1817" 
d="M1738 1552q-16 -9 -50 -9q-17 0 -51 3.5t-51 3.5q-64 0 -185 -35.5t-182 -35.5q-9 0 -16 17q19 78 117 118l169 49l102 36q70 24 101 24q52 0 52 -90q0 -63 -6 -81zM1344 222q0 -33 26.5 -61t60.5 -28q68 0 217 108l202 161l4 -80q-63 -100 -272 -228
q-213 -131 -325 -131q-63 0 -107.5 52t-44.5 116q0 106 124 324l192 311l-426 -407q-395 -358 -513 -363l6 1l-20 5q-46 10 -68 20q-37 18 -66 80q-26 57 -26 102q0 111 167 325q82 105 311 354q170 184 173 219l-29 11q-84 0 -380 -160t-391 -160l-36 12l-17 24
q12 276 384 462q312 155 619 155q65 0 106.5 -47t41.5 -113q0 -105 -171 -323q-11 -14 -319 -372q-172 -200 -174 -262l54 -40q145 43 433 315q23 22 477 481q247 249 307 253l59 -140q0 -78 -150 -285l-279 -375q-150 -216 -150 -316z" />
    <glyph glyph-name="Ucircumflex" unicode="&#xdb;" horiz-adv-x="1817" 
d="M1639 1472q-15 8 -99 82q-65 57 -104 57q-67 0 -181 -57q-171 -85 -176 -86q-5 3 -13 24q15 75 199 157q167 74 260 74q39 0 117.5 -67t78.5 -104q0 -31 -82 -80zM1344 222q0 -33 26.5 -61t60.5 -28q68 0 217 108l202 161l4 -80q-63 -100 -272 -228q-213 -131 -325 -131
q-63 0 -107.5 52t-44.5 116q0 106 124 324l192 311l-426 -407q-395 -358 -513 -363l6 1l-20 5q-46 10 -68 20q-37 18 -66 80q-26 57 -26 102q0 111 167 325q82 105 311 354q170 184 173 219l-29 11q-84 0 -380 -160t-391 -160l-36 12l-17 24q12 276 384 462q312 155 619 155
q65 0 106.5 -47t41.5 -113q0 -105 -171 -323q-11 -14 -319 -372q-172 -200 -174 -262l54 -40q145 43 433 315q23 22 477 481q247 249 307 253l59 -140q0 -78 -150 -285l-279 -375q-150 -216 -150 -316z" />
    <glyph glyph-name="Ugrave" unicode="&#xd9;" horiz-adv-x="1817" 
d="M1581 1519q-134 36 -484 52q-39 1 -83 5q22 3 68 5l-21 8q-5 27 -5 72q0 97 49 97q38 0 104 -23l103 -37l171 -50q105 -41 115 -117zM1344 222q0 -33 26.5 -61t60.5 -28q68 0 217 108l202 161l4 -80q-63 -100 -272 -228q-213 -131 -325 -131q-63 0 -107.5 52t-44.5 116
q0 106 124 324l192 311l-426 -407q-395 -358 -513 -363l6 1l-20 5q-46 10 -68 20q-37 18 -66 80q-26 57 -26 102q0 111 167 325q82 105 311 354q170 184 173 219l-29 11q-84 0 -380 -160t-391 -160l-36 12l-17 24q12 276 384 462q312 155 619 155q65 0 106.5 -47t41.5 -113
q0 -105 -171 -323q-11 -14 -319 -372q-172 -200 -174 -262l54 -40q145 43 433 315q23 22 477 481q247 249 307 253l59 -140q0 -78 -150 -285l-279 -375q-150 -216 -150 -316z" />
    <glyph glyph-name="circumflex" unicode="&#x2c6;" horiz-adv-x="832" 
d="M732 841q-16 9 -99 82q-66 57 -105 57q-67 0 -180 -56l-176 -87q-6 3 -14 25q16 75 200 156q167 74 260 74q39 0 117.5 -67t78.5 -104q0 -30 -82 -80z" />
    <glyph glyph-name="tilde" unicode="&#x2dc;" horiz-adv-x="707" 
d="M618 857q-54 0 -145 13q-105 15 -144 18q31 -15 43 -25q23 -18 25 -40l-14 -13q-79 38 -91 46q-53 35 -53 79q0 98 73 98q6 0 289 -31q-35 28 -80 82q8 21 20 21q51 0 104.5 -59.5t53.5 -111.5q0 -31 -25 -54t-56 -23z" />
    <glyph glyph-name="cedilla" unicode="&#xb8;" horiz-adv-x="707" 
d="M260 -366q-57 0 -143 23q-108 28 -109 66l17 21q115 -46 137 -46q41 0 74 21q37 23 37 62q0 65 -116 69l76 146h76l-60 -119q198 0 198 -104q0 -67 -62 -106q-54 -33 -125 -33z" />
    <glyph glyph-name="notequal" unicode="&#x2260;" horiz-adv-x="1142" 
d="M462 287l-244 -244l-83 86l158 158h-195v125h309l161 158h-470v125h582l244 244l86 -86l-161 -158h196v-125h-308l-160 -158h468v-125h-583z" />
    <glyph glyph-name="infinity" unicode="&#x221e;" horiz-adv-x="1484" 
d="M1070 241q-193 0 -308 264q-141 -264 -327 -264q-147 0 -238 119q-83 109 -83 260t73 259q83 124 227 124q189 0 308 -264q128 264 327 264q142 0 234 -121q84 -112 84 -258q0 -153 -71 -259q-81 -124 -226 -124zM1092 891q-98 0 -186 -120q-49 -66 -114 -207
q99 -198 286 -198q111 0 181 77q66 75 66 187q0 111 -60 183q-64 78 -173 78zM406 878q-112 0 -180 -75.5t-68 -188.5q0 -109 57 -181q62 -79 168 -79t193 116q46 61 115 211q-111 197 -285 197z" />
    <glyph glyph-name="lessequal" unicode="&#x2264;" horiz-adv-x="1142" 
d="M96 519v129l953 299v-137l-726 -227l726 -226v-137zM94 42v133h955v-133h-955z" />
    <glyph glyph-name="greaterequal" unicode="&#x2265;" horiz-adv-x="1142" 
d="M94 220v137l725 226l-725 227v137l955 -299v-129zM94 42v133h955v-133h-955z" />
    <glyph glyph-name="partialdiff" unicode="&#x2202;" horiz-adv-x="1028" 
d="M445 -23q-152 0 -237 121q-75 107 -75 266q0 160 102 287q108 136 264 136q176 0 247 -205q28 127 28 323q0 352 -135 352q-39 0 -107 -73t-114 -73l-52 14l4 -1l-25 50q0 67 74 109q62 34 134 34q187 0 279 -194q71 -149 71 -359q0 -270 -98 -495q-127 -292 -360 -292z
M533 730q-136 0 -204 -173q-50 -128 -50 -291q0 -251 179 -251q133 0 203 168q53 127 53 283q0 105 -38 175q-47 89 -143 89z" />
    <glyph glyph-name="summation" unicode="&#x3a3;" horiz-adv-x="1484" 
d="M1078 -445h-994l806 923l-778 1066h949q132 0 187 -70q42 -54 51 -174q7 -113 13 -226h-83q-66 217 -186 301q-115 79 -346 79h-283l659 -900l-720 -825h398q223 0 329 53q133 66 205 255h85l-40 -200q-30 -129 -79 -195q-65 -87 -173 -87z" />
    <glyph glyph-name="product" unicode="&#x220f;" horiz-adv-x="1712" 
d="M1113 -445v75h175v1839h-855v-1839h175v-75h-541v75h183v1839h-183v75h1587v-75h-183v-1839h183v-75h-541z" />
    <glyph glyph-name="pi" unicode="&#x3c0;" horiz-adv-x="1142" 
d="M837 781q-10 -151 -10 -535q0 -181 86 -181q119 0 125 245h44v-6q0 -321 -216 -321q-220 0 -220 449q0 83 8 202q10 143 10 152l-273 7l3 -180q8 -630 -213 -630q-143 0 -142 252l1 19h41q0 -108 81 -108q170 0 167 567v80h-50q-158 0 -185 -111h-40q2 259 436 259
q89 0 241.5 -11.5t196.5 -11.5q109 0 122 58l40 2q-1 -201 -195 -201q-27 0 -58 4z" />
    <glyph glyph-name="integral" unicode="&#x222b;" horiz-adv-x="570" 
d="M655 1340q-50 0 -88 66.5t-63 66.5q-83 0 -110 -287q-8 -89 -13 -362q-7 -377 -11 -438q-21 -327 -96 -512q-99 -246 -293 -246q-64 0 -111 34q-53 39 -53 101q0 93 98 93q49 0 89 -65.5t64 -65.5q111 0 123 679q7 373 11 429q21 319 95 499q99 239 292 239q65 0 112 -35
q52 -38 52 -100q0 -42 -28 -69t-70 -27z" />
    <glyph glyph-name="Omega" unicode="&#x3a9;" horiz-adv-x="1598" 
d="M974 313v-130h260q98 0 142 40.5t45 138.5h40v-358h-558v367q166 34 261 173q89 129 89 305q0 214 -119 347q-123 138 -335 138q-211 0 -335 -139q-119 -133 -119 -346q0 -180 87 -305q93 -134 263 -173v-367h-558v358h40q-2 -98 45 -140q43 -39 142 -39h260v131
q-230 41 -366 169q-150 143 -150 366q0 270 218 420q191 131 473 131q281 0 472 -132q219 -150 219 -419q0 -223 -151 -365q-134 -125 -365 -171z" />
    <glyph glyph-name="radical" unicode="&#x221a;" horiz-adv-x="1142" 
d="M1114 1594l-603 -1631h-61l-325 898l-126 -46l-23 73l280 97l262 -727l527 1425h187v-89h-118z" />
    <glyph glyph-name="approxequal" unicode="&#x2248;" horiz-adv-x="1142" 
d="M801 504q-78 0 -224 48.5t-223 48.5q-122 0 -319 -137v150q195 116 329 116q78 0 224 -48.5t223 -48.5q114 0 296 133v-150q-169 -112 -306 -112zM801 256q-79 0 -228.5 49t-229.5 49q-128 0 -308 -137v149q191 119 331 119q78 0 223 -50t223 -50q110 0 295 135v-152
q-175 -112 -306 -112z" />
    <glyph glyph-name="Delta" unicode="&#x2206;" horiz-adv-x="1273" 
d="M50 4l571 1390h40l571 -1390h-1182zM581 1060l-396 -971h789z" />
    <glyph glyph-name="lozenge" unicode="&#x25ca;" horiz-adv-x="1028" 
d="M514 -475l-503 1076l503 1068l503 -1068zM514 1441l-396 -840l396 -848l396 848z" />
    <glyph glyph-name="fi" unicode="&#xf001;" horiz-adv-x="1203" 
d="M1096 764q-24 0 -51 20q-30 21 -30 45q0 67 50 120.5t117 53.5q77 0 77 -69q0 -57 -53 -113.5t-110 -56.5zM764 -29q-79 0 -123 94q-33 72 -36 164l-8 8q-112 -100 -200 -137l7 -71q0 -164 -152 -348q-157 -193 -317 -193q-60 0 -87 95q-19 64 -19 145q0 151 143 418
q-61 64 -61 118q0 69 120 158q157 115 176 139q37 47 144 250q114 215 180 309q109 153 193 160l23 -86q0 -154 -197 -434l-301 -405q40 -9 72 -69l44 -96l265 165q30 113 136 229q117 128 222 128q82 0 82 -59q0 -66 -117 -189q-96 -102 -177 -154l-4 -37q0 -98 114 -98
q77 0 164 56q44 29 138 111l18 -69q-85 -112 -195 -196q-138 -106 -247 -106zM252 61q-57 -5 -65 -5q-30 0 -87 22q-104 -169 -104 -274q0 -64 46 -160q94 63 151 159q61 101 61 210z" />
    <glyph glyph-name="fl" unicode="&#xf002;" horiz-adv-x="1223" 
d="M760 393q-17 -76 -17 -95q0 -57 34 -97q37 -43 93 -43q67 0 183 77q87 58 161 128l25 -58q-165 -169 -217 -210q-140 -112 -271 -112q-166 0 -179 234q-94 -81 -184 -121q12 -55 12 -88q0 -152 -156 -333q-160 -187 -309 -187q-56 0 -87 109q-23 78 -23 155
q0 112 142 390q-61 85 -61 131q0 50 120 136q141 102 163 134l246 417q200 324 281 324q35 0 35 -94q0 -132 -200 -425l-297 -404q38 -26 67 -78l44 -93l207 132q45 265 189 482q114 171 347 387q99 93 136 93q36 0 36 -81q0 -219 -178 -449q-64 -83 -342 -361zM800 567
q246 209 342 487q-105 -65 -205 -217q-83 -127 -137 -270zM251 61q-28 -5 -35 -5q-35 0 -120 22q-100 -186 -100 -269q0 -53 44 -165q92 56 153 157q63 105 63 210q0 5 -5 50z" />
    <glyph glyph-name="apple" unicode="&#xf000;" horiz-adv-x="1344" 
d="M529 1457v-125h-596v125h596zM1286 1196v-133h-1353v133h1353zM1286 930v-133h-1353v133h1353zM1286 662v-133h-1353v133h1353zM1286 133v-133h-1353v133h1353zM1286 1457v-125h-595v125h595zM529 395v-124h-596v124h596zM1286 395v-124h-595v124h595z" />
    <glyph glyph-name="dotlessi" unicode="&#x131;" horiz-adv-x="576" 
d="M154 -25q-86 0 -133 83q-38 67 -38 160q0 142 118 313q127 185 261 185q81 0 81 -59q0 -67 -115 -190q-99 -104 -178 -152l-4 -34q0 -102 122 -102q74 0 160 59l137 109l15 -73q-82 -112 -187 -194q-133 -105 -239 -105z" />
    <glyph glyph-name="breve" unicode="&#x2d8;" horiz-adv-x="707" 
d="M495 866q-70 0 -169 48q-114 56 -114 118q0 32 86 85q19 -10 119 -95q69 -59 137 -59q67 0 167 77t133 77q12 0 12 -25q0 -85 -147 -160q-129 -66 -224 -66z" />
    <glyph glyph-name="ring" unicode="&#x2da;" horiz-adv-x="614" 
d="M606 845q-62 0 -106 47.5t-44 110.5q0 53 62.5 128.5t113.5 75.5q43 0 95.5 -51.5t52.5 -94.5q0 -85 -44 -147q-49 -69 -130 -69zM655 1107q-43 -21 -74.5 -67.5t-31.5 -93.5q0 -7 10 -42q99 70 99 145z" />
    </font>
</defs>
</svg>
